<svg width="400" height="400" viewBox="0 0 400 400" version="1.1" xmlns="http://www.w3.org/2000/svg" xmlns:xlink="http://www.w3.org/1999/xlink">
<title>noBkgYellow</title>
<desc>Created using Figma</desc>
<g id="Canvas" transform="translate(270 -200)">
<g id="noBkgYellow">
<g id="Rectangle">
<use xlink:href="#path0_fill" transform="translate(-270 200)" fill="url(#paint0_radial)"/>
</g>
<g id="&#226;&#128;&#152;ROUND TOWN">
<use xlink:href="#path1_fill" transform="translate(-270 215)" fill="#FFC000"/>
</g>
<g id="Rectangle 5.3">
<use xlink:href="#path2_fill" transform="translate(-103 459)" fill="url(#paint2_linear)"/>
</g>
<g id="Rectangle 5.1">
<use xlink:href="#path3_fill" transform="translate(-133 436)" fill="url(#paint3_linear)"/>
</g>
<g id="Rectangle 5.2">
<use xlink:href="#path4_fill" transform="translate(-33 436)" fill="url(#paint4_linear)"/>
</g>
<g id="Rectangle 5">
<use xlink:href="#path5_fill" transform="translate(-240 344)" fill="url(#paint5_linear)"/>
</g>
<g id="Rectangle 3">
<use xlink:href="#path6_fill" transform="translate(-270 360)" fill="url(#paint6_linear)"/>
</g>
<g id="Rectangle 6">
<use xlink:href="#path7_fill" transform="translate(-2 376)" fill="url(#paint7_linear)"/>
</g>
<g id="Rectangle 4">
<use xlink:href="#path8_fill" transform="translate(34 400)" fill="url(#paint8_linear)"/>
</g>
<g id="21" filter="url(#filter0_d)">
<mask id="mask0_outline_out">
<rect id="mask0_outline_inv" fill="white" x="58" y="-2" width="288" height="238" transform="translate(-276 326)"/>
<use xlink:href="#path9_fill" fill="black" transform="translate(-276 326)"/>
</mask>
<g mask="url(#mask0_outline_out)">
<use xlink:href="#path10_stroke_2x" transform="translate(-276 326)" fill="#FFFFFF"/>
</g>
</g>
</g>
</g>
<defs>
<filter id="filter0_d" filterUnits="userSpaceOnUse" x="-226" y="316" width="308" height="258" color-interpolation-filters="sRGB">
<feFlood flood-opacity="0" result="BackgroundImageFix"/>
<feColorMatrix in="SourceAlpha" type="matrix" values="0 0 0 0 0 0 0 0 0 0 0 0 0 0 0 0 0 0 255 0"/>
<feOffset dx="2" dy="2"/>
<feGaussianBlur stdDeviation="5"/>
<feColorMatrix type="matrix" values="0 0 0 0 1 0 0 0 0 0.753012 0 0 0 0 0 0 0 0 1 0"/>
<feBlend mode="normal" in2="BackgroundImageFix" result="effect1_dropShadow"/>
<feBlend mode="normal" in="SourceGraphic" in2="effect1_dropShadow" result="shape"/>
</filter>
<radialGradient id="paint0_radial" cx="0.5" cy="0.5" r="0.5" gradientUnits="userSpaceOnUse" gradientTransform="matrix(-298 -598 598 -298 87 838)">
<stop offset="0" stop-color="#FFC000"/>
<stop offset="1" stop-color="#8F57EB"/>
</radialGradient>
<linearGradient id="paint2_linear" x1="0" y1="0" x2="1" y2="0" gradientUnits="userSpaceOnUse" gradientTransform="matrix(66 152 -59.2908 25.7447 29.6454 -23.8723)">
<stop offset="0" stop-color="#B58AB1"/>
<stop offset="1" stop-color="#CCCCDD"/>
</linearGradient>
<linearGradient id="paint3_linear" x1="0" y1="0" x2="1" y2="0" gradientUnits="userSpaceOnUse" gradientTransform="matrix(96 150 -58.5366 37.4634 43.2683 -4.73171)">
<stop offset="0" stop-color="#9568A1"/>
<stop offset="1" stop-color="#A5A5CC"/>
</linearGradient>
<linearGradient id="paint4_linear" x1="0" y1="0" x2="1" y2="0" gradientUnits="userSpaceOnUse" gradientTransform="matrix(117 -132 42.6585 37.811 -28.3293 145.095)">
<stop offset="0" stop-color="#9292B2"/>
<stop offset="1" stop-color="#CF8CB8"/>
</linearGradient>
<linearGradient id="paint5_linear" x1="0" y1="0" x2="1" y2="0" gradientUnits="userSpaceOnUse" gradientTransform="matrix(205.317 262 -133.047 97.9453 66.5234 -48.9727)">
<stop offset="0" stop-color="#7067AB"/>
<stop offset="1" stop-color="#AAAABB"/>
</linearGradient>
<linearGradient id="paint6_linear" x1="0" y1="0" x2="1" y2="0" gradientUnits="userSpaceOnUse" gradientTransform="matrix(243 241 -112.467 113.4 50.2333 -48.7)">
<stop offset="0" stop-color="#7B5996"/>
<stop offset="1" stop-color="#CCCCEB"/>
</linearGradient>
<linearGradient id="paint7_linear" x1="0" y1="0" x2="1" y2="0" gradientUnits="userSpaceOnUse" gradientTransform="matrix(145 -219 105.589 69.9107 -89.7947 189.045)">
<stop offset="0" stop-color="#9494D4"/>
<stop offset="1" stop-color="#6D4670"/>
</linearGradient>
<linearGradient id="paint8_linear" x1="0" y1="0" x2="1" y2="0" gradientUnits="userSpaceOnUse" gradientTransform="matrix(217 -213 102.24 104.16 -107.12 147.92)">
<stop offset="0" stop-color="#C7ADC4"/>
<stop offset="1" stop-color="#513852"/>
</linearGradient>
<path id="path0_fill" d="M 0 72C 0 32.2355 32.2355 0 72 0L 328 0C 367.764 0 400 32.2355 400 72L 400 328C 400 367.764 367.764 400 328 400L 72 400C 32.2355 400 0 367.764 0 328L 0 72Z"/>
<path id="path1_fill" d="M 28.0859 46.4375C 28.0859 46.6458 28.0729 46.8932 28.0469 47.1797C 28.0469 47.4401 28.0339 47.6745 28.0078 47.8828C 27.9557 48.1432 27.8255 48.3646 27.6172 48.5469C 27.4349 48.7031 27.3307 48.9505 27.3047 49.2891C 27.2526 49.2891 27.2135 49.2891 27.1875 49.2891L 27.1484 49.25C 27.0443 49.25 26.9531 49.2891 26.875 49.3672C 26.7969 49.4453 26.7057 49.4714 26.6016 49.4453C 25.9245 50.4349 25.3385 51.4766 24.8438 52.5703C 24.349 53.6641 23.9583 54.8099 23.6719 56.0078C 23.776 56.4505 23.8802 56.8802 23.9844 57.2969C 24.0885 57.7135 24.2578 58.1172 24.4922 58.5078C 24.3359 58.7422 24.2188 59.0156 24.1406 59.3281C 24.0625 59.6406 23.9583 59.9401 23.8281 60.2266C 23.724 60.487 23.5417 60.7083 23.2812 60.8906C 23.0469 61.0729 22.6823 61.1641 22.1875 61.1641C 21.7188 61.1641 21.237 61.0469 20.7422 60.8125C 20.2474 60.5521 19.8177 60.2526 19.4531 59.9141L 19.4531 59.6406C 19.4531 59.3542 19.375 59.1068 19.2188 58.8984C 19.0885 58.6901 19.0234 58.4688 19.0234 58.2344C 19.0234 57.974 19.0495 57.7135 19.1016 57.4531C 19.1797 57.1927 19.2188 56.9193 19.2188 56.6328C 19.2188 56.4505 19.1797 56.2552 19.1016 56.0469C 19.0495 55.8385 19.0234 55.6953 19.0234 55.6172C 19.0234 55.2786 19.1016 55.0573 19.2578 54.9531C 19.4401 54.849 19.5573 54.6927 19.6094 54.4844C 19.6875 54.1458 19.7526 53.8073 19.8047 53.4688C 19.8568 53.1302 19.9479 52.8047 20.0781 52.4922C 20.3385 51.7109 20.651 50.9818 21.0156 50.3047C 21.4062 49.6276 21.8229 48.9896 22.2656 48.3906C 22.7344 47.7656 23.2292 47.1667 23.75 46.5938C 24.2708 45.9948 24.8047 45.3958 25.3516 44.7969C 25.5078 44.7708 25.6641 44.7448 25.8203 44.7188C 26.0026 44.6927 26.1849 44.6797 26.3672 44.6797C 26.7057 44.6797 26.9922 44.7448 27.2266 44.875C 27.4609 45.0052 27.7214 45.1615 28.0078 45.3438C 28.0339 45.5521 28.0469 45.7474 28.0469 45.9297C 28.0729 46.0859 28.0859 46.2552 28.0859 46.4375ZM 76.0156 79.6016C 75.9635 80.1224 75.7812 80.526 75.4688 80.8125C 75.1562 81.125 74.7526 81.2812 74.2578 81.2812C 73.9974 81.2812 73.75 81.2422 73.5156 81.1641C 73.0208 81.5547 72.4349 81.8542 71.7578 82.0625C 71.0807 82.2708 70.4427 82.4792 69.8438 82.6875C 69.1146 82.6615 68.3984 82.5964 67.6953 82.4922C 66.9922 82.388 66.263 82.362 65.5078 82.4141C 65.2474 82.2318 64.974 82.1146 64.6875 82.0625C 64.401 82.0104 64.1016 81.9714 63.7891 81.9453C 63.5026 81.9453 63.2161 81.9062 62.9297 81.8281C 62.6693 81.75 62.4089 81.5677 62.1484 81.2812L 60.1953 81.2812C 60.013 81.2812 59.7396 81.1901 59.375 81.0078C 59.0365 80.8516 58.6458 80.6823 58.2031 80.5C 57.7865 80.3177 57.3307 80.1484 56.8359 79.9922C 56.3672 79.8359 55.9245 79.7578 55.5078 79.7578L 55.2734 79.7578C 54.987 79.5234 54.6484 79.3411 54.2578 79.2109C 53.8932 79.1068 53.5156 79.0026 53.125 78.8984C 52.7344 78.8203 52.3568 78.7292 51.9922 78.625C 51.6276 78.5208 51.3151 78.3776 51.0547 78.1953C 50.7943 78.013 50.4948 77.8307 50.1562 77.6484C 49.8177 77.4401 49.4661 77.349 49.1016 77.375C 48.6068 77.0885 48.0859 76.8411 47.5391 76.6328C 47.0182 76.4245 46.4844 76.2292 45.9375 76.0469L 44.3359 75.4609C 43.8151 75.2526 43.2943 75.0052 42.7734 74.7188C 42.6953 74.7448 42.6042 74.7448 42.5 74.7188C 42.3958 74.6927 42.3047 74.6797 42.2266 74.6797C 42.0703 74.6797 41.9792 74.7318 41.9531 74.8359C 41.7708 74.6536 41.5625 74.4974 41.3281 74.3672C 41.1198 74.237 40.9115 74.0807 40.7031 73.8984C 40.599 73.9245 40.4948 73.9505 40.3906 73.9766C 40.3125 73.9766 40.2083 73.9766 40.0781 73.9766C 39.8438 73.9766 39.6094 73.9505 39.375 73.8984C 39.1667 73.8464 38.9583 73.7812 38.75 73.7031C 38.5156 74.224 38.3594 74.8099 38.2812 75.4609C 38.2031 76.112 38.138 76.7891 38.0859 77.4922C 38.0599 78.1693 38.0208 78.8464 37.9688 79.5234C 37.9167 80.2266 37.7995 80.8646 37.6172 81.4375C 37.6693 81.6458 37.6953 81.8542 37.6953 82.0625L 37.6953 82.7266C 37.6953 83.1693 37.7604 83.5208 37.8906 83.7812C 37.8385 84.0156 37.7865 84.237 37.7344 84.4453C 37.7083 84.6536 37.6693 84.862 37.6172 85.0703C 37.6432 85.3568 37.6562 85.6172 37.6562 85.8516C 37.6823 86.112 37.6953 86.3854 37.6953 86.6719L 37.6953 87.3359C 37.6953 87.5703 37.6693 87.8047 37.6172 88.0391C 37.3568 88.1953 37.0964 88.3385 36.8359 88.4688C 36.5755 88.625 36.3151 88.8073 36.0547 89.0156C 35.8724 88.6771 35.5599 88.4818 35.1172 88.4297C 35.013 88.5599 34.9349 88.7292 34.8828 88.9375C 34.8568 89.1719 34.7396 89.2891 34.5312 89.2891C 34.1667 89.0026 33.8672 88.7682 33.6328 88.5859C 33.3984 88.4036 33.138 88.1302 32.8516 87.7656C 32.8255 87.7135 32.8125 87.6484 32.8125 87.5703C 32.8125 87.4401 32.8385 87.3229 32.8906 87.2188C 32.9427 87.1146 32.9688 87.0104 32.9688 86.9062C 32.9688 86.5938 32.9297 86.3203 32.8516 86.0859C 32.7995 85.7474 32.7604 85.4089 32.7344 85.0703C 32.7083 84.7578 32.6953 84.4453 32.6953 84.1328C 32.6953 83.6901 32.7214 83.2604 32.7734 82.8438C 32.8516 82.4271 32.9818 81.9974 33.1641 81.5547C 33.4505 80.7995 33.6458 80.0052 33.75 79.1719C 33.8802 78.3385 33.9714 77.5052 34.0234 76.6719C 34.0755 75.8125 34.1016 74.9531 34.1016 74.0938C 34.1276 73.2344 34.1797 72.4141 34.2578 71.6328C 34.0755 71.2161 33.8542 70.8906 33.5938 70.6562C 33.3594 70.3958 33.2422 69.9922 33.2422 69.4453C 33.2422 68.9505 33.3984 68.5729 33.7109 68.3125C 34.0234 68.026 34.2969 67.6875 34.5312 67.2969C 34.4792 67.1406 34.5182 67.0365 34.6484 66.9844L 35.1172 62.8828C 35.1432 62.5964 35.1823 62.2839 35.2344 61.9453C 35.3125 61.6068 35.3646 61.2943 35.3906 61.0078C 35.4427 60.4089 35.4688 59.8229 35.4688 59.25C 35.4688 58.6771 35.4948 58.1042 35.5469 57.5312C 35.6771 56.2552 35.7943 54.9922 35.8984 53.7422C 36.0286 52.4922 36.0938 51.2422 36.0938 49.9922C 36.0938 49.3932 36.0677 48.7943 36.0156 48.1953C 35.9896 47.5964 35.9115 46.9974 35.7812 46.3984C 35.3385 46.5286 34.8438 46.6719 34.2969 46.8281C 33.776 46.9583 33.3333 47.1927 32.9688 47.5312L 32.6562 47.5312C 31.9792 47.5312 31.3411 47.6615 30.7422 47.9219C 30.1693 48.1823 29.5833 48.4297 28.9844 48.6641C 28.724 48.7943 28.4635 48.8854 28.2031 48.9375C 27.9427 48.9635 27.6693 49.0156 27.3828 49.0938C 27.2526 49.1198 27.1094 49.1979 26.9531 49.3281C 26.7969 49.4583 26.6536 49.5495 26.5234 49.6016L 25.8594 49.7578C 25.6771 49.8099 25.599 49.9271 25.625 50.1094C 25.651 50.2917 25.5859 50.4089 25.4297 50.4609C 25.2995 50.5911 25.1172 50.6562 24.8828 50.6562C 24.6484 50.6302 24.4661 50.6172 24.3359 50.6172L 24.1797 50.6172C 23.5286 51.0859 22.9036 51.4896 22.3047 51.8281C 21.6797 52.1406 20.9505 52.349 20.1172 52.4531L 19.2578 53C 18.9714 53.1823 18.6458 53.2734 18.2812 53.2734C 17.9948 53.2734 17.7604 53.2214 17.5781 53.1172C 17.3698 52.8047 17.2135 52.4531 17.1094 52.0625C 16.9792 51.6719 16.7708 51.3333 16.4844 51.0469C 16.6146 50.9167 16.7057 50.7474 16.7578 50.5391C 16.7839 50.3047 16.8229 50.0964 16.875 49.9141C 17.6562 49.5755 18.4505 49.25 19.2578 48.9375C 20.0391 48.625 20.7943 48.2474 21.5234 47.8047C 21.6016 47.8307 21.7188 47.8438 21.875 47.8438C 22.1354 47.8438 22.3698 47.8047 22.5781 47.7266C 22.7865 47.6484 22.9948 47.5573 23.2031 47.4531C 23.4115 47.349 23.6198 47.2578 23.8281 47.1797C 24.0365 47.1016 24.2839 47.0755 24.5703 47.1016C 25.4557 46.6068 26.3932 46.2031 27.3828 45.8906C 28.3724 45.5781 29.3099 45.1484 30.1953 44.6016C 30.3255 44.6016 30.4297 44.6276 30.5078 44.6797C 30.612 44.7318 30.7161 44.7578 30.8203 44.7578C 30.9245 44.7578 30.9896 44.7448 31.0156 44.7188C 31.1719 44.5104 31.3802 44.3672 31.6406 44.2891C 31.901 44.1849 32.1615 44.1068 32.4219 44.0547C 32.7083 43.9766 32.9688 43.8854 33.2031 43.7812C 33.4635 43.651 33.6328 43.4557 33.7109 43.1953C 33.8411 43.2995 34.0365 43.3516 34.2969 43.3516C 34.7396 43.3516 35.1432 43.2604 35.5078 43.0781C 35.8984 42.8958 36.3151 42.8047 36.7578 42.8047C 36.862 42.8047 36.9531 42.8307 37.0312 42.8828C 37.1354 42.9089 37.2396 42.9219 37.3438 42.9219C 37.5521 42.9219 37.6562 42.8568 37.6562 42.7266C 37.6823 42.5964 37.7604 42.4792 37.8906 42.375C 39.4792 42.0885 41.0547 41.8281 42.6172 41.5938C 44.2057 41.3594 45.8073 41.2422 47.4219 41.2422C 47.6562 41.0859 47.9167 41.0078 48.2031 41.0078C 48.4896 41.0078 48.75 41.0859 48.9844 41.2422C 49.4271 41.1901 49.8698 41.151 50.3125 41.125C 50.7552 41.099 51.1979 41.0859 51.6406 41.0859C 52.6562 41.0859 53.6979 41.151 54.7656 41.2812C 55.8333 41.4115 56.888 41.6198 57.9297 41.9062C 58.9974 42.1667 60.013 42.5312 60.9766 43C 61.9401 43.4427 62.8385 43.9766 63.6719 44.6016C 63.75 44.8359 63.8542 45.0703 63.9844 45.3047C 64.1146 45.5391 64.2839 45.7214 64.4922 45.8516C 64.4922 45.9036 64.4792 45.9427 64.4531 45.9688C 64.4531 45.9948 64.4531 46.0339 64.4531 46.0859C 64.4531 46.3724 64.5312 46.6458 64.6875 46.9062C 64.8698 47.1667 64.9609 47.4792 64.9609 47.8438C 64.9609 48.2083 64.8958 48.5729 64.7656 48.9375C 64.6615 49.3021 64.6224 49.6667 64.6484 50.0312C 64.362 50.4479 64.1146 50.8255 63.9062 51.1641C 63.724 51.5026 63.6068 51.9323 63.5547 52.4531C 63.0859 52.9219 62.6693 53.4427 62.3047 54.0156C 61.9401 54.5625 61.5625 55.1094 61.1719 55.6562C 60.8073 56.1771 60.3906 56.6589 59.9219 57.1016C 59.4531 57.5443 58.8932 57.8958 58.2422 58.1562C 58.2161 58.4167 58.112 58.7031 57.9297 59.0156L 57.1094 59.0156C 57.0312 59.224 56.901 59.3802 56.7188 59.4844L 56.1719 59.7969C 55.9896 59.901 55.8333 60.0312 55.7031 60.1875C 55.599 60.3438 55.5469 60.5651 55.5469 60.8516C 55.4948 60.8255 55.4297 60.8125 55.3516 60.8125C 55.0911 60.8125 54.7786 60.9427 54.4141 61.2031C 54.0755 61.4635 53.8021 61.6719 53.5938 61.8281C 53.151 62.1406 52.6953 62.4271 52.2266 62.6875C 51.7839 62.9479 51.3932 63.3125 51.0547 63.7812C 50.013 64.224 49.0234 64.7448 48.0859 65.3438C 47.1484 65.9167 46.1328 66.3724 45.0391 66.7109C 44.6224 67.1536 44.1276 67.5052 43.5547 67.7656C 43.0078 68 42.474 68.2604 41.9531 68.5469L 41.9531 68.6641C 41.9531 68.8724 42.0312 69.0807 42.1875 69.2891C 42.3438 69.4714 42.526 69.6406 42.7344 69.7969C 42.9427 69.9271 43.1641 70.0182 43.3984 70.0703C 43.6589 70.1224 43.8802 70.1224 44.0625 70.0703C 44.5833 70.5391 45.1823 70.9167 45.8594 71.2031C 46.5365 71.4896 47.2396 71.75 47.9688 71.9844C 48.6979 72.2188 49.4141 72.4661 50.1172 72.7266C 50.8203 72.987 51.4714 73.3125 52.0703 73.7031L 53.0078 73.7031C 53.6068 74.224 54.3099 74.6146 55.1172 74.875C 55.9505 75.1354 56.7448 75.3698 57.5 75.5781C 57.8125 75.8646 58.2031 76.0859 58.6719 76.2422C 59.1667 76.3724 59.6354 76.4375 60.0781 76.4375L 60.3125 76.4375C 60.4167 76.4375 60.5078 76.4245 60.5859 76.3984L 60.5859 76.4766C 60.5859 76.6068 60.625 76.6979 60.7031 76.75C 60.7812 76.776 60.8594 76.8021 60.9375 76.8281C 61.0417 76.8281 61.1328 76.8542 61.2109 76.9062C 61.3151 76.9323 61.3932 76.9844 61.4453 77.0625L 61.8359 77.0625C 62.3828 77.0625 62.9036 77.1797 63.3984 77.4141C 63.8932 77.6224 64.4141 77.7266 64.9609 77.7266C 65.1953 77.7266 65.3776 77.7005 65.5078 77.6484C 65.6641 77.7005 65.7812 77.8047 65.8594 77.9609C 65.9375 78.1172 66.0417 78.2474 66.1719 78.3516C 66.3542 78.3255 66.5234 78.2995 66.6797 78.2734C 66.8359 78.2734 66.9922 78.2734 67.1484 78.2734C 67.7214 78.2734 68.2552 78.3385 68.75 78.4688C 69.2448 78.599 69.7526 78.7943 70.2734 79.0547C 71.1068 78.6901 71.9271 78.3906 72.7344 78.1562C 73.5417 77.9219 74.401 77.8047 75.3125 77.8047L 75.3125 77.8828C 75.3125 78.1953 75.3906 78.4818 75.5469 78.7422C 75.7292 79.0286 75.8854 79.3151 76.0156 79.6016ZM 61.0547 48.4297C 61.0547 48.1172 60.9896 47.8698 60.8594 47.6875C 60.7552 47.5052 60.612 47.349 60.4297 47.2188C 60.2474 47.0625 60.0521 46.9193 59.8438 46.7891C 59.6615 46.6589 59.4922 46.4896 59.3359 46.2812C 58.6589 46.0729 57.9948 45.8385 57.3438 45.5781C 56.6927 45.3177 56.0286 45.0964 55.3516 44.9141C 55.013 44.8359 54.6745 44.7708 54.3359 44.7188C 53.9974 44.6406 53.6589 44.6016 53.3203 44.6016L 52.4609 44.6016C 52.3047 44.5755 52.1354 44.5495 51.9531 44.5234C 51.7969 44.4714 51.6406 44.4323 51.4844 44.4062C 51.1198 44.3542 50.7552 44.3151 50.3906 44.2891C 50.0521 44.263 49.7005 44.25 49.3359 44.25C 48.6589 44.25 47.9818 44.276 47.3047 44.3281L 45.2734 44.4844C 44.987 44.5104 44.6875 44.5234 44.375 44.5234C 44.0625 44.5234 43.776 44.5495 43.5156 44.6016C 43.3854 44.6276 43.2031 44.6927 42.9688 44.7969C 42.7344 44.875 42.487 44.9661 42.2266 45.0703C 41.9661 45.1484 41.7057 45.2396 41.4453 45.3438C 41.2109 45.4479 41.0026 45.526 40.8203 45.5781C 40.8464 45.7604 40.8594 45.9427 40.8594 46.125L 40.8594 46.6328C 40.8594 47.0234 40.8464 47.4141 40.8203 47.8047C 40.7943 48.1953 40.7422 48.5859 40.6641 48.9766C 40.638 49.1328 40.599 49.2891 40.5469 49.4453C 40.4948 49.6016 40.4557 49.7578 40.4297 49.9141C 40.3776 50.1484 40.3516 50.4089 40.3516 50.6953L 40.3516 51.4375C 40.2995 52.0365 40.2604 52.6224 40.2344 53.1953C 40.2083 53.7682 40.1693 54.3542 40.1172 54.9531C 39.9609 56.6719 39.7917 58.3776 39.6094 60.0703C 39.4531 61.763 39.349 63.4688 39.2969 65.1875C 40.1562 65.0052 40.9766 64.7318 41.7578 64.3672C 42.5391 64.0026 43.3073 63.612 44.0625 63.1953C 44.8177 62.7526 45.5729 62.3229 46.3281 61.9062C 47.0833 61.4896 47.8776 61.138 48.7109 60.8516C 48.9193 60.5651 49.1667 60.3307 49.4531 60.1484C 49.7656 59.9661 50.026 59.7318 50.2344 59.4453C 50.4948 59.4453 50.6901 59.3932 50.8203 59.2891C 50.9505 59.1589 51.1198 59.0677 51.3281 59.0156C 52.5781 57.9219 53.8542 56.8932 55.1562 55.9297C 56.4583 54.9661 57.7083 53.9375 58.9062 52.8438C 59.0104 52.4792 59.1797 52.1276 59.4141 51.7891C 59.6745 51.4245 59.9219 51.0599 60.1562 50.6953C 60.3906 50.3307 60.599 49.9661 60.7812 49.6016C 60.9635 49.237 61.0547 48.8464 61.0547 48.4297ZM 104.102 56.1641C 104.102 57.6484 103.997 59.0938 103.789 60.5C 103.607 61.8802 103.333 63.2865 102.969 64.7188C 102.63 64.9792 102.422 65.3047 102.344 65.6953C 102.266 66.0859 102.135 66.4505 101.953 66.7891C 101.797 67.0755 101.589 67.388 101.328 67.7266C 101.068 68.0391 100.781 68.3776 100.469 68.7422C 100.156 69.0807 99.8438 69.4323 99.5312 69.7969C 99.2188 70.1615 98.9583 70.526 98.75 70.8906C 97.9688 71.151 97.4089 71.7109 97.0703 72.5703C 96.6536 72.7266 96.224 72.9089 95.7812 73.1172C 95.3385 73.2995 95.026 73.625 94.8438 74.0938C 93.8802 74.5885 92.9688 75.1615 92.1094 75.8125C 91.276 76.4375 90.3646 76.9844 89.375 77.4531C 89.2448 77.5833 89.0885 77.6875 88.9062 77.7656C 88.75 77.8177 88.5807 77.8828 88.3984 77.9609C 88.2422 78.0391 88.0859 78.1302 87.9297 78.2344C 87.7995 78.3646 87.7214 78.5208 87.6953 78.7031C 87.5911 78.7031 87.513 78.6771 87.4609 78.625C 87.4349 78.599 87.3568 78.5729 87.2266 78.5469C 86.9401 78.7031 86.8099 78.9505 86.8359 79.2891C 86.7318 79.237 86.5885 79.2109 86.4062 79.2109C 86.0938 79.2109 85.7812 79.3021 85.4688 79.4844C 85.1823 79.6927 84.9349 79.901 84.7266 80.1094C 84.4141 80.2656 84.0495 80.4219 83.6328 80.5781C 83.2422 80.7344 82.9557 80.9948 82.7734 81.3594C 82.6693 81.2552 82.513 81.2031 82.3047 81.2031C 82.0703 81.2031 81.8229 81.2682 81.5625 81.3984C 81.3021 81.5547 81.1068 81.724 80.9766 81.9062C 80.612 81.9062 80.2604 81.9583 79.9219 82.0625C 79.6094 82.1927 79.2839 82.3099 78.9453 82.4141C 78.6068 82.5443 78.2682 82.6615 77.9297 82.7656C 77.6172 82.8698 77.2786 82.9219 76.9141 82.9219C 76.7057 82.9219 76.5495 82.8698 76.4453 82.7656C 76.3411 82.6615 76.2109 82.5703 76.0547 82.4922C 75.9245 82.5964 75.6901 82.7135 75.3516 82.8438C 75.0391 82.974 74.8047 83.0391 74.6484 83.0391C 74.362 83.0391 74.0755 83 73.7891 82.9219C 73.5286 82.8438 73.2552 82.7526 72.9688 82.6484L 72.1484 82.375C 71.888 82.2969 71.6016 82.2448 71.2891 82.2188C 71.0547 82.0104 70.7682 81.7891 70.4297 81.5547C 70.1172 81.3464 69.8047 81.2812 69.4922 81.3594C 69.362 80.9688 69.1667 80.6302 68.9062 80.3438C 68.6458 80.0573 68.3464 79.7969 68.0078 79.5625C 67.9297 79.5104 67.8385 79.4583 67.7344 79.4062C 67.6562 79.3802 67.5911 79.3411 67.5391 79.2891C 67.4089 79.2109 67.2917 79.0547 67.1875 78.8203C 67.0833 78.5859 66.9661 78.4688 66.8359 78.4688C 66.8099 78.4688 66.7708 78.4818 66.7188 78.5078C 66.6927 78.5339 66.6667 78.5469 66.6406 78.5469C 66.5885 78.3125 66.5104 78.0911 66.4062 77.8828C 66.3021 77.6484 66.1198 77.5052 65.8594 77.4531C 65.651 76.776 65.5078 76.099 65.4297 75.4219C 65.3516 74.7448 65.2474 74.0677 65.1172 73.3906C 65.0651 73.1823 65 72.9349 64.9219 72.6484C 64.8698 72.3359 64.8438 72.0625 64.8438 71.8281C 64.8438 71.4375 64.8958 70.9688 65 70.4219C 65.1302 69.875 65.2344 69.3932 65.3125 68.9766C 65.625 67.4661 66.0417 66.0078 66.5625 64.6016C 67.0833 63.1693 67.6432 61.75 68.2422 60.3438C 68.8672 58.9375 69.5052 57.5443 70.1562 56.1641C 70.8073 54.7839 71.4193 53.3776 71.9922 51.9453C 72.0964 51.9453 72.1615 51.9193 72.1875 51.8672L 72.3047 51.6719C 72.3568 51.5938 72.3958 51.5286 72.4219 51.4766C 72.474 51.4245 72.5651 51.3984 72.6953 51.3984L 72.6953 51.2812C 72.6693 51.125 72.6953 50.9948 72.7734 50.8906C 72.8776 50.7865 72.9036 50.6172 72.8516 50.3828C 73.2682 49.9141 73.6198 49.3932 73.9062 48.8203C 74.1927 48.2214 74.4792 47.6354 74.7656 47.0625C 75.0781 46.4896 75.4036 45.9297 75.7422 45.3828C 76.0807 44.8359 76.5104 44.3672 77.0312 43.9766L 77.0312 43.7031C 77.0052 43.5729 77.0052 43.4427 77.0312 43.3125C 77.0833 43.1562 77.1745 43.0521 77.3047 43C 77.7734 42.5312 78.1641 42.0625 78.4766 41.5938C 78.7891 41.125 79.1016 40.6693 79.4141 40.2266C 79.7526 39.7578 80.1172 39.3281 80.5078 38.9375C 80.9245 38.5208 81.4453 38.1432 82.0703 37.8047C 82.3568 37.6745 82.5651 37.4792 82.6953 37.2188C 82.8255 36.9583 82.9948 36.776 83.2031 36.6719C 83.3073 36.6198 83.4115 36.5938 83.5156 36.5938C 83.6458 36.5677 83.763 36.5286 83.8672 36.4766C 84.3099 36.3464 84.7526 36.1901 85.1953 36.0078C 85.638 35.7995 86.1068 35.6953 86.6016 35.6953C 87.2266 35.6953 87.6953 35.8776 88.0078 36.2422C 88.3464 36.5807 88.6068 36.9974 88.7891 37.4922C 88.9974 37.987 89.1667 38.5078 89.2969 39.0547C 89.4271 39.6016 89.6354 40.0703 89.9219 40.4609C 90.7031 40.513 91.4974 40.6042 92.3047 40.7344C 93.112 40.8385 93.8151 41.1641 94.4141 41.7109C 94.4661 41.737 94.5312 41.75 94.6094 41.75C 94.7396 41.75 94.8047 41.6979 94.8047 41.5938C 94.8047 41.4896 94.8698 41.4375 95 41.4375L 95.1172 41.4375C 95.8984 41.9062 96.6406 42.4271 97.3438 43C 98.0729 43.5469 98.7891 44.1198 99.4922 44.7188C 99.6224 44.8229 99.7526 44.9271 99.8828 45.0312C 100.039 45.1094 100.169 45.2135 100.273 45.3438C 100.404 45.5 100.521 45.6823 100.625 45.8906C 100.755 46.099 100.872 46.2812 100.977 46.4375C 102.279 48.7031 103.151 51.138 103.594 53.7422C 103.646 54.0286 103.685 54.3021 103.711 54.5625C 103.763 54.8229 103.789 55.0703 103.789 55.3047C 103.789 55.5391 103.841 55.6953 103.945 55.7734C 104.049 55.8255 104.102 55.9557 104.102 56.1641ZM 101.094 58.1562C 101.094 57.1146 100.964 56.112 100.703 55.1484C 100.833 55.0964 100.911 55.0182 100.938 54.9141C 100.99 54.7839 101.016 54.6536 101.016 54.5234L 101.016 54.3281L 100.547 53.4688C 100.521 53.1042 100.443 52.7656 100.312 52.4531C 100.208 52.1406 100.078 51.8281 99.9219 51.5156C 99.7656 51.2031 99.6094 50.8906 99.4531 50.5781C 99.3229 50.2656 99.2318 49.9271 99.1797 49.5625C 98.763 49.25 98.3854 48.8984 98.0469 48.5078C 97.7344 48.0911 97.4479 47.6615 97.1875 47.2188C 97.0052 47.1406 96.8359 47.0885 96.6797 47.0625C 96.5234 47.0365 96.4714 46.8932 96.5234 46.6328C 96.0547 46.5026 95.625 46.3203 95.2344 46.0859C 94.8698 45.8255 94.5052 45.5391 94.1406 45.2266C 93.5417 45.0964 92.9427 44.9401 92.3438 44.7578C 91.7708 44.5495 91.1849 44.4453 90.5859 44.4453C 90.1693 44.4453 89.7656 44.5234 89.375 44.6797C 89.5052 44.888 89.5703 45.1224 89.5703 45.3828C 89.5703 45.6172 89.5964 45.8516 89.6484 46.0859C 90.4818 46.2943 90.9896 46.8021 91.1719 47.6094C 91.0417 47.6875 90.9245 47.7917 90.8203 47.9219C 90.7161 48.026 90.612 48.1302 90.5078 48.2344C 90.4297 48.3125 90.3255 48.3906 90.1953 48.4688C 90.0651 48.5469 89.9089 48.5859 89.7266 48.5859C 89.362 48.5859 89.0755 48.5208 88.8672 48.3906C 88.6849 48.2604 88.3854 48.2344 87.9688 48.3125C 87.526 47.9219 87.0964 47.5182 86.6797 47.1016C 86.263 46.6589 85.7943 46.2682 85.2734 45.9297C 85.1953 45.6693 85.0651 45.4349 84.8828 45.2266C 84.7266 45.0182 84.5573 44.8229 84.375 44.6406C 84.2188 44.4323 84.0625 44.224 83.9062 44.0156C 83.776 43.7812 83.7109 43.5208 83.7109 43.2344C 83.7109 43.0521 83.724 42.9219 83.75 42.8438C 83.5938 42.7917 83.4766 42.7656 83.3984 42.7656C 83.1901 42.7656 82.9948 42.8438 82.8125 43C 82.6302 43.1302 82.4219 43.2214 82.1875 43.2734C 81.9792 43.8984 81.6797 44.4453 81.2891 44.9141C 80.8984 45.3828 80.4948 45.8385 80.0781 46.2812C 79.6615 46.724 79.2708 47.1927 78.9062 47.6875C 78.5677 48.1562 78.3203 48.7422 78.1641 49.4453C 77.3307 50.487 76.5625 51.6719 75.8594 53C 75.1562 54.3021 74.6224 55.5781 74.2578 56.8281C 73.6589 57.5052 73.1901 58.2214 72.8516 58.9766C 72.513 59.7318 72.3177 60.5651 72.2656 61.4766C 72.1354 61.5547 72.0312 61.6589 71.9531 61.7891L 71.5625 62.5703C 71.5104 62.7005 71.4193 62.8047 71.2891 62.8828L 71.2891 63.0781C 71.2891 63.2865 71.25 63.4818 71.1719 63.6641C 71.0938 63.8203 71.0026 63.9766 70.8984 64.1328C 70.8203 64.2891 70.7422 64.4453 70.6641 64.6016C 70.5859 64.7318 70.5469 64.888 70.5469 65.0703C 70.5469 65.2786 70.599 65.487 70.7031 65.6953C 70.4167 65.7474 70.2214 65.9036 70.1172 66.1641C 70.0391 66.3984 69.9219 66.6068 69.7656 66.7891C 69.6615 67.6224 69.5573 68.4688 69.4531 69.3281C 69.349 70.1875 69.2969 71.0339 69.2969 71.8672C 69.2969 72.8307 69.401 73.8073 69.6094 74.7969C 69.8438 75.0312 70.0521 75.2917 70.2344 75.5781C 70.4167 75.8646 70.599 76.138 70.7812 76.3984C 70.9896 76.6589 71.2109 76.8932 71.4453 77.1016C 71.6797 77.2839 71.9922 77.401 72.3828 77.4531C 72.3828 77.6354 72.4219 77.7656 72.5 77.8438C 72.5781 77.9219 72.6432 78.026 72.6953 78.1562C 73.2422 78.3385 73.8151 78.4818 74.4141 78.5859C 75.013 78.7161 75.612 78.7812 76.2109 78.7812C 76.6276 78.7812 77.0443 78.7292 77.4609 78.625C 77.9036 78.5208 78.2682 78.3125 78.5547 78C 79.8828 77.9479 81.1979 77.6354 82.5 77.0625C 83.8281 76.4896 85.0391 75.8646 86.1328 75.1875L 86.9531 75.1875C 87.2396 74.7969 87.5911 74.4844 88.0078 74.25C 88.4245 73.9896 88.8542 73.7552 89.2969 73.5469C 89.375 73.4948 89.4792 73.4427 89.6094 73.3906C 89.7396 73.3385 89.8438 73.2865 89.9219 73.2344C 90.2083 73.026 90.4948 72.7917 90.7812 72.5312C 91.0938 72.2708 91.4062 72.0234 91.7188 71.7891C 92.2396 71.3984 92.7734 71.0208 93.3203 70.6562C 93.8672 70.2917 94.388 69.901 94.8828 69.4844C 95.4036 69.0677 95.8854 68.625 96.3281 68.1562C 96.7969 67.6615 97.1875 67.1146 97.5 66.5156C 97.6562 66.5156 97.7734 66.4766 97.8516 66.3984C 97.9557 66.2943 98.0339 66.1901 98.0859 66.0859C 98.1641 65.9818 98.2422 65.8906 98.3203 65.8125C 98.4245 65.7344 98.5677 65.6953 98.75 65.6953C 98.75 65.4609 98.7891 65.2656 98.8672 65.1094C 98.9714 64.9271 99.0755 64.7708 99.1797 64.6406C 99.3099 64.4844 99.4271 64.3411 99.5312 64.2109C 99.6615 64.0807 99.7786 63.9115 99.8828 63.7031L 99.8828 62.6094C 100.299 61.9323 100.599 61.2161 100.781 60.4609C 100.99 59.7057 101.094 58.9375 101.094 58.1562ZM 139.414 82.6484C 139.414 82.9609 139.323 83.2214 139.141 83.4297C 138.958 83.6641 138.737 83.8464 138.477 83.9766C 138.216 84.1328 137.943 84.263 137.656 84.3672C 137.37 84.4974 137.122 84.6276 136.914 84.7578C 136.315 84.6276 135.69 84.5104 135.039 84.4062C 134.388 84.3281 133.802 84.1589 133.281 83.8984C 132.214 82.7266 131.458 81.3724 131.016 79.8359C 130.599 78.3255 130.326 76.8151 130.195 75.3047C 130.143 74.862 130.117 74.4323 130.117 74.0156C 130.117 73.5729 130.091 73.1302 130.039 72.6875C 129.987 72.2969 129.753 72.0625 129.336 71.9844C 129.648 71.9323 129.87 71.776 130 71.5156C 130.13 71.2292 130.208 70.9167 130.234 70.5781C 130.26 70.2135 130.26 69.862 130.234 69.5234C 130.234 69.1589 130.26 68.8594 130.312 68.625C 130.104 68.7031 129.922 68.8854 129.766 69.1719C 129.609 69.4323 129.466 69.7318 129.336 70.0703C 129.206 70.4089 129.076 70.7474 128.945 71.0859C 128.841 71.3984 128.737 71.6458 128.633 71.8281C 127.539 73.7031 126.263 75.4089 124.805 76.9453C 123.372 78.4818 121.888 80.0052 120.352 81.5156C 119.909 81.6719 119.492 81.8672 119.102 82.1016C 118.711 82.362 118.346 82.6354 118.008 82.9219C 117.018 83.2083 116.081 83.3516 115.195 83.3516C 114.388 83.3516 113.594 83.2344 112.812 83C 112.031 82.7917 111.328 82.4271 110.703 81.9062L 109.258 78.625C 109.18 78.4167 109.089 78.2083 108.984 78C 108.88 77.7656 108.802 77.5443 108.75 77.3359C 108.698 77.1016 108.672 76.8542 108.672 76.5938C 108.698 76.3073 108.711 76.0599 108.711 75.8516C 108.711 74.9401 108.737 74.0286 108.789 73.1172C 108.867 72.1797 108.971 71.2552 109.102 70.3438C 109.154 69.9792 109.232 69.6016 109.336 69.2109C 109.44 68.8203 109.518 68.4427 109.57 68.0781L 109.57 67.6484C 109.57 67.5182 109.557 67.362 109.531 67.1797C 109.505 66.9714 109.427 66.8411 109.297 66.7891C 109.922 65.2786 110.234 63.7031 110.234 62.0625C 110.234 61.8021 110.221 61.5547 110.195 61.3203C 110.195 61.0599 110.182 60.7995 110.156 60.5391C 110.339 60.3568 110.456 60.1484 110.508 59.9141C 110.56 59.6536 110.586 59.3932 110.586 59.1328C 110.586 58.8464 110.586 58.5729 110.586 58.3125C 110.612 58.0521 110.69 57.8047 110.82 57.5703C 110.794 57.2839 110.768 57.0104 110.742 56.75C 110.742 56.4635 110.742 56.1771 110.742 55.8906C 110.742 54.1458 110.872 52.4271 111.133 50.7344C 111.419 49.0156 111.562 47.2839 111.562 45.5391L 111.562 43.8984C 111.562 43.5339 111.562 43.1562 111.562 42.7656C 111.589 42.375 111.641 41.9974 111.719 41.6328C 111.823 41.2682 111.966 40.9297 112.148 40.6172C 112.331 40.2786 112.591 39.9922 112.93 39.7578C 112.982 39.7578 113.021 39.7578 113.047 39.7578C 113.099 39.7318 113.151 39.7188 113.203 39.7188C 113.438 39.7188 113.62 39.7839 113.75 39.9141C 113.88 40.0182 114.076 40.0573 114.336 40.0312C 114.805 40.7083 115.169 41.4245 115.43 42.1797C 115.716 42.9349 115.859 43.7292 115.859 44.5625C 115.859 45.1875 115.768 45.7995 115.586 46.3984C 115.404 46.9974 115.312 47.6224 115.312 48.2734C 115.312 48.5339 115.326 48.7943 115.352 49.0547C 115.378 49.3151 115.391 49.5755 115.391 49.8359C 115.391 50.0964 115.352 50.3568 115.273 50.6172C 115.221 50.8516 115.104 51.0599 114.922 51.2422C 114.974 51.763 115.013 52.2969 115.039 52.8438C 115.065 53.3646 115.078 53.8854 115.078 54.4062C 115.078 55.8906 114.987 57.375 114.805 58.8594C 114.622 60.3438 114.414 61.8281 114.18 63.3125C 113.945 64.7969 113.737 66.2812 113.555 67.7656C 113.372 69.25 113.281 70.7474 113.281 72.2578L 113.281 73.3906C 113.281 73.7552 113.307 74.1328 113.359 74.5234C 113.203 74.888 113.125 75.2786 113.125 75.6953C 113.125 76.2682 113.255 76.8281 113.516 77.375C 113.776 77.9219 114.089 78.4167 114.453 78.8594C 114.583 78.8854 114.701 78.8984 114.805 78.8984C 114.935 78.9245 115.065 78.9375 115.195 78.9375C 115.872 78.9375 116.471 78.7943 116.992 78.5078C 117.539 78.2214 118.047 77.8698 118.516 77.4531C 119.01 77.0365 119.492 76.6068 119.961 76.1641C 120.43 75.7214 120.938 75.3568 121.484 75.0703C 122.318 74.0026 123.099 72.9349 123.828 71.8672C 124.557 70.7734 125.26 69.6406 125.938 68.4688C 125.99 67.8438 126.146 67.2188 126.406 66.5938C 126.693 65.9427 126.979 65.3047 127.266 64.6797C 127.578 64.0547 127.852 63.4427 128.086 62.8438C 128.346 62.2448 128.477 61.6719 128.477 61.125C 128.477 60.8385 128.385 60.6432 128.203 60.5391C 128.464 59.862 128.659 59.1589 128.789 58.4297C 128.919 57.7005 129.023 56.9714 129.102 56.2422C 129.206 55.513 129.31 54.7969 129.414 54.0938C 129.518 53.3646 129.674 52.6484 129.883 51.9453C 129.883 51.7891 129.87 51.6328 129.844 51.4766C 129.844 51.3203 129.844 51.1641 129.844 51.0078C 129.844 49.8099 129.961 48.638 130.195 47.4922C 130.43 46.3203 130.547 45.1354 130.547 43.9375C 130.547 43.651 130.521 43.3906 130.469 43.1562C 130.443 42.8958 130.43 42.6484 130.43 42.4141C 130.43 42.2057 130.495 42.0755 130.625 42.0234C 130.781 41.9714 130.859 41.8281 130.859 41.5938C 130.859 41.3854 130.833 41.1641 130.781 40.9297C 130.755 40.6953 130.742 40.4479 130.742 40.1875C 130.742 39.3802 130.82 38.5859 130.977 37.8047C 131.133 37.0234 131.211 36.2292 131.211 35.4219L 131.211 34.9531C 131.211 34.7708 131.185 34.6016 131.133 34.4453C 131.315 34.1589 131.562 33.9766 131.875 33.8984C 132.188 33.7943 132.487 33.7422 132.773 33.7422C 133.242 33.7422 133.633 33.7943 133.945 33.8984C 134.44 35.2266 134.857 36.5938 135.195 38C 135.534 39.3802 135.807 40.7865 136.016 42.2188C 136.068 42.5573 136.133 42.9219 136.211 43.3125C 136.315 43.6771 136.367 44.0417 136.367 44.4062C 136.367 44.4844 136.341 44.5755 136.289 44.6797C 136.263 44.7839 136.237 44.888 136.211 44.9922C 136.185 45.2005 136.159 45.4089 136.133 45.6172C 136.133 45.8255 136.133 46.0339 136.133 46.2422C 136.133 46.8672 136.172 47.4922 136.25 48.1172C 136.328 48.7422 136.367 49.3802 136.367 50.0312C 136.367 50.7604 136.263 51.4635 136.055 52.1406C 135.872 52.7917 135.729 53.4818 135.625 54.2109C 135.521 54.9661 135.482 55.7083 135.508 56.4375C 135.534 57.1667 135.482 57.9089 135.352 58.6641C 135.299 58.9766 135.221 59.2891 135.117 59.6016C 135.013 59.888 134.961 60.2005 134.961 60.5391C 134.961 60.7734 134.974 61.0078 135 61.2422C 135.052 61.4766 135.078 61.724 135.078 61.9844C 135.078 62.375 134.987 62.6745 134.805 62.8828C 134.857 63.0911 134.896 63.2865 134.922 63.4688C 134.948 63.625 135 63.8073 135.078 64.0156C 134.948 64.1719 134.857 64.3411 134.805 64.5234C 134.753 64.7057 134.727 64.901 134.727 65.1094C 134.727 65.3698 134.74 65.6172 134.766 65.8516C 134.792 66.0599 134.805 66.2812 134.805 66.5156C 134.805 67.0625 134.714 67.5833 134.531 68.0781C 134.375 68.5729 134.271 69.0807 134.219 69.6016C 134.193 69.9661 134.18 70.3307 134.18 70.6953C 134.206 71.0339 134.219 71.3854 134.219 71.75C 134.219 72.1406 134.193 72.5182 134.141 72.8828C 134.115 73.2474 134.01 73.612 133.828 73.9766C 133.88 74.1328 133.945 74.2891 134.023 74.4453C 134.102 74.6016 134.219 74.7188 134.375 74.7969C 134.375 75.6042 134.479 76.4245 134.688 77.2578C 134.922 78.0651 135.234 78.8333 135.625 79.5625C 135.703 79.7188 135.82 79.8359 135.977 79.9141C 136.133 79.9922 136.276 80.0703 136.406 80.1484C 136.536 80.2526 136.641 80.3698 136.719 80.5C 136.797 80.6302 136.81 80.8255 136.758 81.0859C 136.81 81.112 136.888 81.125 136.992 81.125C 137.201 81.125 137.37 81.0729 137.5 80.9688C 137.656 80.8646 137.839 80.8125 138.047 80.8125L 138.32 80.8125C 138.555 81.0469 138.789 81.3203 139.023 81.6328C 139.284 81.9453 139.414 82.2839 139.414 82.6484ZM 175.586 41.8672C 175.43 42.1276 175.312 42.401 175.234 42.6875C 175.182 42.974 175.143 43.2604 175.117 43.5469L 174.844 43.5469C 174.635 43.5469 174.453 43.5208 174.297 43.4688C 174.141 43.3906 173.958 43.3255 173.75 43.2734C 173.854 44.263 173.919 45.2656 173.945 46.2812C 173.971 47.2969 173.984 48.2995 173.984 49.2891C 173.984 50.5391 173.971 51.7891 173.945 53.0391C 173.919 54.263 173.906 55.5 173.906 56.75C 173.906 57.349 173.867 57.9479 173.789 58.5469C 173.737 59.1198 173.581 59.6797 173.32 60.2266C 173.372 60.6693 173.411 61.099 173.438 61.5156C 173.464 61.9062 173.477 62.3229 173.477 62.7656C 173.477 63.9896 173.398 65.2135 173.242 66.4375C 173.112 67.6354 172.943 68.8333 172.734 70.0312C 172.656 70.5 172.578 70.9818 172.5 71.4766C 172.448 71.9453 172.357 72.401 172.227 72.8438C 172.174 72.974 172.096 73.1042 171.992 73.2344C 171.914 73.3646 171.849 73.4948 171.797 73.625C 171.484 74.3021 171.133 74.9792 170.742 75.6562C 170.378 76.3073 169.935 76.9062 169.414 77.4531C 169.023 77.4792 168.646 77.5833 168.281 77.7656C 167.917 77.9479 167.578 78.0391 167.266 78.0391C 166.979 78.0391 166.745 77.8958 166.562 77.6094L 166.172 77.7656C 166.042 77.8177 165.898 77.8568 165.742 77.8828C 164.857 77.5182 164.01 77.0755 163.203 76.5547C 162.422 76.0339 161.771 75.3568 161.25 74.5234L 161.094 74.5234C 160.859 74.5234 160.69 74.4714 160.586 74.3672C 160.456 74.237 160.312 74.0807 160.156 73.8984C 160.026 73.6901 159.909 73.5078 159.805 73.3516C 159.492 72.8568 159.154 72.362 158.789 71.8672C 158.424 71.3724 157.995 70.9557 157.5 70.6172C 157.292 69.8359 156.979 69.1719 156.562 68.625C 156.146 68.0521 155.716 67.4401 155.273 66.7891C 154.935 65.487 154.31 64.276 153.398 63.1562C 153.529 63.026 153.594 62.9349 153.594 62.8828C 153.594 62.7526 153.542 62.6484 153.438 62.5703C 153.359 62.4661 153.32 62.362 153.32 62.2578C 153.32 62.1536 153.346 62.0755 153.398 62.0234C 153.06 61.6589 152.773 61.2552 152.539 60.8125C 152.331 60.3438 152.122 59.875 151.914 59.4062C 151.732 58.9375 151.523 58.4688 151.289 58C 151.081 57.5312 150.82 57.1016 150.508 56.7109C 150.221 56.8932 150.039 57.1146 149.961 57.375C 149.909 57.6354 149.883 57.9089 149.883 58.1953C 149.883 58.4036 149.883 58.612 149.883 58.8203C 149.909 59.0286 149.922 59.237 149.922 59.4453C 149.922 59.9661 149.857 60.474 149.727 60.9688C 149.622 61.4635 149.544 61.9714 149.492 62.4922C 149.466 62.8568 149.453 63.2604 149.453 63.7031C 149.479 64.1458 149.466 64.5885 149.414 65.0312C 149.388 65.474 149.323 65.9036 149.219 66.3203C 149.115 66.737 148.932 67.0885 148.672 67.375C 148.516 68.8594 148.32 70.3438 148.086 71.8281C 147.852 73.3125 147.63 74.7969 147.422 76.2812C 147.37 76.5417 147.318 76.8672 147.266 77.2578C 147.214 77.6484 147.148 78.0391 147.07 78.4297C 147.018 78.8464 146.966 79.237 146.914 79.6016C 146.888 79.9922 146.875 80.3047 146.875 80.5391C 146.875 80.7995 146.94 81.0469 147.07 81.2812C 147.201 81.5417 147.266 81.7891 147.266 82.0234C 147.266 82.2057 147.201 82.3099 147.07 82.3359C 146.966 82.388 146.901 82.4922 146.875 82.6484C 147.057 83.2214 147.148 83.8724 147.148 84.6016C 147.148 84.8099 147.135 85.0182 147.109 85.2266C 147.083 85.4609 147.044 85.6823 146.992 85.8906C 146.94 86.0208 146.849 86.138 146.719 86.2422C 146.589 86.3724 146.523 86.4896 146.523 86.5938C 146.523 86.6979 146.576 86.776 146.68 86.8281C 146.523 86.9844 146.328 87.0885 146.094 87.1406C 145.859 87.1927 145.69 87.3359 145.586 87.5703C 145.326 87.362 145.065 87.1667 144.805 86.9844C 144.544 86.8281 144.297 86.6458 144.062 86.4375L 143.945 86.3984C 143.763 86.3984 143.607 86.4505 143.477 86.5547C 143.372 86.6849 143.229 86.75 143.047 86.75C 142.995 86.75 142.943 86.737 142.891 86.7109C 142.865 86.7109 142.826 86.7109 142.773 86.7109L 142.539 85.6953C 142.461 85.3568 142.357 85.0443 142.227 84.7578C 142.435 84.2109 142.565 83.5859 142.617 82.8828C 142.695 82.2057 142.773 81.5156 142.852 80.8125C 142.93 80.1094 143.047 79.4323 143.203 78.7812C 143.359 78.1562 143.646 77.6094 144.062 77.1406C 144.062 76.9323 143.984 76.7891 143.828 76.7109C 143.698 76.6328 143.633 76.4635 143.633 76.2031C 143.633 76.151 143.646 76.0599 143.672 75.9297C 143.724 75.7995 143.763 75.6562 143.789 75.5C 143.841 75.3438 143.88 75.2005 143.906 75.0703C 143.958 74.9141 143.997 74.7969 144.023 74.7188C 144.232 73.7031 144.388 72.6615 144.492 71.5938C 144.622 70.526 144.948 69.5365 145.469 68.625C 145.443 68.5208 145.43 68.3646 145.43 68.1562C 145.43 67.7135 145.469 67.2839 145.547 66.8672C 145.651 66.4505 145.703 66.0208 145.703 65.5781C 145.703 65.2135 145.664 64.875 145.586 64.5625C 145.664 64.276 145.768 64.0026 145.898 63.7422C 146.055 63.4557 146.133 63.1693 146.133 62.8828C 146.133 62.6224 146.042 62.4401 145.859 62.3359C 145.99 62.2318 146.068 62.1146 146.094 61.9844C 146.146 61.8542 146.172 61.724 146.172 61.5938C 146.198 61.4635 146.224 61.3464 146.25 61.2422C 146.302 61.112 146.406 61.0078 146.562 60.9297C 146.536 60.6693 146.51 60.4219 146.484 60.1875C 146.484 59.9531 146.484 59.7057 146.484 59.4453C 146.484 58.4818 146.536 57.5312 146.641 56.5938C 146.745 55.6302 146.797 54.6536 146.797 53.6641C 146.797 52.7005 146.719 51.763 146.562 50.8516L 146.992 49.9922C 146.732 49.7839 146.562 49.4453 146.484 48.9766C 146.406 48.5078 146.354 48 146.328 47.4531C 146.302 46.9062 146.25 46.3724 146.172 45.8516C 146.12 45.3047 145.977 44.862 145.742 44.5234L 145.742 44.1719C 145.742 43.7552 145.716 43.3516 145.664 42.9609C 145.612 42.5703 145.586 42.1797 145.586 41.7891L 145.586 41.4375C 145.716 41.3854 145.807 41.2943 145.859 41.1641C 145.938 41.0339 145.99 40.9036 146.016 40.7734L 146.172 40.7734C 146.484 40.7734 146.797 40.7474 147.109 40.6953C 147.422 40.6432 147.734 40.6172 148.047 40.6172L 148.555 40.6172C 148.867 40.8516 149.141 41.125 149.375 41.4375C 149.609 41.75 149.896 42.0365 150.234 42.2969L 150.234 43C 150.469 43.3125 150.651 43.651 150.781 44.0156C 150.911 44.3802 151.042 44.7578 151.172 45.1484C 151.328 45.5391 151.484 45.9167 151.641 46.2812C 151.797 46.6458 152.018 46.9583 152.305 47.2188C 152.253 47.4792 152.227 47.6875 152.227 47.8438C 152.227 48.1823 152.253 48.5208 152.305 48.8594C 152.383 49.1979 152.435 49.5234 152.461 49.8359C 152.565 49.9661 152.656 50.1354 152.734 50.3438C 152.812 50.526 152.943 50.6432 153.125 50.6953C 153.255 51.7109 153.516 52.6745 153.906 53.5859C 154.323 54.4974 154.622 55.4479 154.805 56.4375C 155.013 56.6458 155.169 56.9062 155.273 57.2188C 155.378 57.5052 155.482 57.7917 155.586 58.0781C 155.716 58.3646 155.846 58.638 155.977 58.8984C 156.133 59.1328 156.354 59.3021 156.641 59.4062C 156.797 60.0312 156.992 60.6562 157.227 61.2812C 157.461 61.9062 157.826 62.4401 158.32 62.8828C 158.32 63.4036 158.398 63.8594 158.555 64.25C 158.737 64.6146 158.932 64.9661 159.141 65.3047C 159.375 65.6172 159.583 65.9297 159.766 66.2422C 159.948 66.5547 160.065 66.8932 160.117 67.2578C 160.482 67.8047 160.898 68.3125 161.367 68.7812C 161.862 69.25 162.357 69.7057 162.852 70.1484C 163.372 70.5651 163.88 70.9948 164.375 71.4375C 164.87 71.8802 165.326 72.349 165.742 72.8438C 166.029 72.8698 166.263 72.9349 166.445 73.0391C 166.654 73.1172 166.888 73.1823 167.148 73.2344C 167.331 73.1042 167.474 72.9479 167.578 72.7656C 167.708 72.5573 167.826 72.349 167.93 72.1406C 168.034 71.9323 168.138 71.737 168.242 71.5547C 168.372 71.3464 168.529 71.1641 168.711 71.0078C 168.711 70.9557 168.698 70.9167 168.672 70.8906C 168.672 70.8385 168.672 70.7865 168.672 70.7344C 168.672 70.4479 168.711 70.2266 168.789 70.0703C 168.893 69.888 169.01 69.6927 169.141 69.4844L 169.141 68.4688C 169.349 68.0781 169.492 67.6615 169.57 67.2188C 169.648 66.776 169.688 66.3333 169.688 65.8906C 169.688 65.526 169.674 65.1615 169.648 64.7969C 169.622 64.4062 169.609 64.0156 169.609 63.625C 169.609 63.3906 169.622 63.1562 169.648 62.9219C 169.674 62.6615 169.727 62.4271 169.805 62.2188C 169.857 62.1667 169.948 62.0885 170.078 61.9844C 170.208 61.8542 170.273 61.776 170.273 61.75C 170.273 61.6198 170.234 61.4896 170.156 61.3594C 170.078 61.2292 170.039 61.099 170.039 60.9688C 170.039 60.7865 170.117 60.6432 170.273 60.5391L 170.273 60.3047C 170.273 60.1745 170.247 60.0573 170.195 59.9531C 170.169 59.8229 170.091 59.7318 169.961 59.6797C 170.091 59.5234 170.182 59.3411 170.234 59.1328C 170.286 58.8984 170.312 58.6641 170.312 58.4297C 170.339 58.1693 170.339 57.9219 170.312 57.6875C 170.312 57.4531 170.312 57.2318 170.312 57.0234C 170.312 56.7891 170.326 56.5417 170.352 56.2812C 170.378 56.0208 170.482 55.7995 170.664 55.6172C 170.586 55.3047 170.534 55.0052 170.508 54.7188C 170.482 54.4062 170.469 54.0938 170.469 53.7812C 170.469 53.2344 170.495 52.6875 170.547 52.1406C 170.599 51.5938 170.625 51.0339 170.625 50.4609C 170.625 50.2526 170.612 50.0443 170.586 49.8359C 170.56 49.6016 170.547 49.3802 170.547 49.1719C 170.547 48.9635 170.586 48.8724 170.664 48.8984C 170.768 48.8984 170.82 48.8333 170.82 48.7031C 170.82 48.5208 170.794 48.3385 170.742 48.1562C 170.716 47.974 170.69 47.7917 170.664 47.6094C 170.612 47.1667 170.573 46.724 170.547 46.2812C 170.521 45.8125 170.508 45.3438 170.508 44.875C 170.508 44.5885 170.508 44.3021 170.508 44.0156C 170.534 43.7031 170.586 43.4036 170.664 43.1172C 170.508 42.8828 170.404 42.6615 170.352 42.4531C 170.326 42.2188 170.299 42.0104 170.273 41.8281L 170.195 41.2422C 170.169 41.0339 170.091 40.8255 169.961 40.6172C 169.935 40.5911 169.922 40.513 169.922 40.3828C 169.922 40.1745 169.974 40.0182 170.078 39.9141C 169.948 39.4714 169.766 39.0417 169.531 38.625C 169.323 38.2083 169.193 37.7526 169.141 37.2578C 168.854 37.1016 168.633 36.8542 168.477 36.5156C 168.346 36.151 168.281 35.8255 168.281 35.5391C 168.281 35.2005 168.372 34.875 168.555 34.5625C 168.737 34.224 169.023 34.0547 169.414 34.0547C 169.57 34.0547 169.714 34.1068 169.844 34.2109C 170 34.2891 170.143 34.3932 170.273 34.5234C 170.43 34.6276 170.573 34.7318 170.703 34.8359C 170.859 34.9141 171.016 34.9531 171.172 34.9531C 171.276 34.9531 171.432 34.9271 171.641 34.875C 171.927 35.2656 172.214 35.6302 172.5 35.9688C 172.812 36.2812 173.125 36.6068 173.438 36.9453C 173.438 37.388 173.516 37.7917 173.672 38.1562C 173.828 38.5208 173.997 38.8724 174.18 39.2109C 174.362 39.5234 174.518 39.8359 174.648 40.1484C 174.805 40.4609 174.87 40.7995 174.844 41.1641C 174.896 41.3464 175 41.4766 175.156 41.5547C 175.312 41.6328 175.456 41.737 175.586 41.8672ZM 214.883 50.7344C 214.883 52.2188 214.688 53.5859 214.297 54.8359C 213.906 56.0859 213.398 57.2839 212.773 58.4297C 212.174 59.5755 211.523 60.7083 210.82 61.8281C 210.117 62.9479 209.453 64.1328 208.828 65.3828C 208.672 65.3828 208.555 65.4219 208.477 65.5C 208.424 65.5781 208.372 65.6823 208.32 65.8125C 208.294 65.9167 208.242 66.0208 208.164 66.125C 208.112 66.2031 208.008 66.2422 207.852 66.2422C 207.617 66.8151 207.318 67.362 206.953 67.8828C 206.589 68.3776 206.198 68.8724 205.781 69.3672C 205.391 69.8359 205 70.3177 204.609 70.8125C 204.245 71.3073 203.919 71.8411 203.633 72.4141L 203.242 72.4141C 201.836 74.4453 200.247 76.2682 198.477 77.8828C 196.732 79.4974 194.818 80.9427 192.734 82.2188C 192.682 82.375 192.604 82.5052 192.5 82.6094C 192.396 82.7135 192.37 82.8568 192.422 83.0391C 192.135 83.1953 191.888 83.3906 191.68 83.625C 191.497 83.8854 191.315 84.1458 191.133 84.4062C 190.951 84.6667 190.755 84.9141 190.547 85.1484C 190.365 85.4089 190.117 85.6042 189.805 85.7344C 189.414 85.6562 189.036 85.5911 188.672 85.5391C 188.333 85.487 187.982 85.4479 187.617 85.4219C 187.461 85.4219 187.305 85.4219 187.148 85.4219C 186.992 85.4479 186.849 85.4479 186.719 85.4219C 186.432 85.3698 186.185 85.2526 185.977 85.0703C 185.794 84.9141 185.521 84.8359 185.156 84.8359C 184.974 84.8359 184.831 84.849 184.727 84.875C 184.518 84.5104 184.271 84.1328 183.984 83.7422C 183.724 83.3776 183.594 82.974 183.594 82.5312C 183.594 82.1927 183.633 81.8802 183.711 81.5938C 183.815 81.3073 183.867 81.0078 183.867 80.6953C 183.867 80.0703 183.75 79.4583 183.516 78.8594C 183.307 78.2604 183.203 77.6484 183.203 77.0234C 183.203 76.8151 183.229 76.6198 183.281 76.4375C 183.333 76.2292 183.359 76.0208 183.359 75.8125C 183.359 75.5781 183.255 75.3698 183.047 75.1875C 183.073 75.0573 183.125 74.9271 183.203 74.7969C 183.281 74.6667 183.32 74.5234 183.32 74.3672C 183.372 74.1589 183.385 73.9375 183.359 73.7031C 183.333 73.4427 183.32 73.2083 183.32 73C 183.32 72.4531 183.346 71.9062 183.398 71.3594C 183.451 70.8125 183.568 70.2786 183.75 69.7578C 183.724 69.6016 183.685 69.4583 183.633 69.3281L 183.477 68.9375C 183.659 68.3906 183.776 67.7786 183.828 67.1016C 183.88 66.4245 183.906 65.7474 183.906 65.0703L 183.906 63C 183.906 62.3229 183.945 61.6849 184.023 61.0859C 184.076 60.8255 184.128 60.5781 184.18 60.3438C 184.258 60.0833 184.297 59.8359 184.297 59.6016C 184.297 59.3932 184.258 59.2109 184.18 59.0547C 184.102 58.8724 183.997 58.7031 183.867 58.5469C 184.049 58.4948 184.154 58.3906 184.18 58.2344C 184.206 58.0521 184.219 57.8958 184.219 57.7656C 184.219 57.401 184.154 56.9974 184.023 56.5547C 184.128 56.112 184.193 55.6693 184.219 55.2266C 184.245 54.7578 184.258 54.3021 184.258 53.8594C 184.258 52.2969 184.154 50.7604 183.945 49.25C 183.763 47.7396 183.646 46.2161 183.594 44.6797L 183.477 44.6797C 183.294 44.6797 183.151 44.7188 183.047 44.7969C 182.943 44.875 182.839 44.9661 182.734 45.0703C 182.63 45.1484 182.513 45.2266 182.383 45.3047C 182.253 45.3568 182.096 45.3698 181.914 45.3438C 181.602 45.7083 181.237 46.0208 180.82 46.2812C 180.43 46.5417 180.013 46.776 179.57 46.9844C 179.128 47.1927 178.672 47.388 178.203 47.5703C 177.734 47.7266 177.292 47.8828 176.875 48.0391C 176.51 47.9089 176.198 47.7005 175.938 47.4141C 175.677 47.1016 175.43 46.7891 175.195 46.4766C 175.169 46.3724 175.156 46.2682 175.156 46.1641L 175.156 45.8516C 175.156 45.1224 175.326 44.5755 175.664 44.2109C 176.003 43.8203 176.367 43.3646 176.758 42.8438L 176.953 42.8438C 177.083 42.8438 177.201 42.8698 177.305 42.9219C 177.383 42.974 177.487 43 177.617 43L 177.734 43C 178.49 42.375 179.284 41.8802 180.117 41.5156C 180.977 41.125 181.862 40.8255 182.773 40.6172C 183.164 40.2266 183.555 39.9271 183.945 39.7188C 184.362 39.5104 184.844 39.4062 185.391 39.4062C 185.521 39.4062 185.664 39.4193 185.82 39.4453C 186.003 39.4453 186.159 39.4583 186.289 39.4844C 187.357 38.9896 188.359 38.5729 189.297 38.2344C 190.26 37.8698 191.367 37.6875 192.617 37.6875C 192.773 37.6875 192.878 37.6484 192.93 37.5703C 193.008 37.4922 193.073 37.4141 193.125 37.3359C 193.177 37.2318 193.229 37.1406 193.281 37.0625C 193.333 36.9844 193.424 36.9453 193.555 36.9453C 193.555 36.9974 193.568 37.0755 193.594 37.1797C 193.62 37.2839 193.685 37.3359 193.789 37.3359C 193.893 37.3359 193.984 37.3099 194.062 37.2578C 194.167 37.1797 194.284 37.1406 194.414 37.1406C 194.544 37.1406 194.635 37.2318 194.688 37.4141C 194.974 37.2318 195.247 37.0625 195.508 36.9062C 195.768 36.75 196.055 36.6328 196.367 36.5547C 196.758 36.6328 197.148 36.6979 197.539 36.75C 197.956 36.8021 198.372 36.8281 198.789 36.8281C 199.102 36.8281 199.414 36.8151 199.727 36.7891C 200.039 36.737 200.312 36.6068 200.547 36.3984C 200.651 36.3724 200.703 36.4245 200.703 36.5547C 200.938 36.763 201.185 36.9062 201.445 36.9844C 201.706 37.0365 201.979 37.0755 202.266 37.1016C 202.552 37.1016 202.839 37.1146 203.125 37.1406C 203.411 37.1667 203.672 37.2578 203.906 37.4141C 204.115 37.4661 204.284 37.5573 204.414 37.6875C 204.544 37.7917 204.714 37.8828 204.922 37.9609C 205.078 38.013 205.286 38.0521 205.547 38.0781C 205.833 38.1042 206.042 38.1562 206.172 38.2344C 206.302 38.2865 206.367 38.3776 206.367 38.5078C 206.393 38.612 206.471 38.7031 206.602 38.7812C 206.836 38.9635 207.148 39.0807 207.539 39.1328C 207.93 39.1589 208.268 39.276 208.555 39.4844C 208.659 40.0573 208.945 40.4349 209.414 40.6172C 209.883 40.7995 210.339 40.9818 210.781 41.1641C 210.938 41.3203 210.99 41.5026 210.938 41.7109C 211.25 41.9453 211.523 42.2057 211.758 42.4922C 212.018 42.7786 212.253 43.0911 212.461 43.4297C 212.695 43.7422 212.917 44.0547 213.125 44.3672C 213.333 44.6797 213.581 44.9661 213.867 45.2266C 213.841 45.4609 213.867 45.6432 213.945 45.7734C 214.049 45.9036 214.076 46.099 214.023 46.3594C 214.336 46.6458 214.622 47.0234 214.883 47.4922C 214.727 47.7266 214.648 47.987 214.648 48.2734C 214.648 48.5339 214.688 48.7943 214.766 49.0547C 214.844 49.3151 214.883 49.5755 214.883 49.8359L 214.883 50.7344ZM 211.25 49.875C 211.25 49.1198 211.107 48.3906 210.82 47.6875C 210.534 46.9583 210.286 46.2422 210.078 45.5391C 209.74 45.5391 209.518 45.4219 209.414 45.1875C 209.336 44.9271 209.18 44.7057 208.945 44.5234C 208.451 44.4193 208.138 44.0417 208.008 43.3906C 207.487 43.1823 206.953 42.9479 206.406 42.6875C 205.859 42.4271 205.404 42.0625 205.039 41.5938C 204.102 41.3073 203.151 41.0208 202.188 40.7344C 201.25 40.4219 200.286 40.2656 199.297 40.2656C 199.115 40.2656 198.945 40.2786 198.789 40.3047C 198.659 40.3047 198.529 40.3047 198.398 40.3047C 198.19 40.3047 197.969 40.3438 197.734 40.4219C 197.5 40.5 197.279 40.5391 197.07 40.5391C 196.836 40.5391 196.602 40.4609 196.367 40.3047C 195.846 40.5911 195.273 40.8125 194.648 40.9688C 194.049 41.125 193.438 41.2682 192.812 41.3984C 192.188 41.5026 191.576 41.6458 190.977 41.8281C 190.378 41.9844 189.844 42.2318 189.375 42.5703C 189.219 42.5182 189.062 42.4792 188.906 42.4531C 188.776 42.4271 188.646 42.4141 188.516 42.4141C 188.281 42.4141 188.099 42.4661 187.969 42.5703C 187.891 42.6224 187.839 42.6875 187.812 42.7656C 187.812 42.8438 187.799 42.9349 187.773 43.0391C 187.773 43.1172 187.747 43.1823 187.695 43.2344C 187.643 43.2865 187.539 43.2995 187.383 43.2734C 187.383 43.4036 187.37 43.5208 187.344 43.625C 187.344 43.7292 187.344 43.8464 187.344 43.9766C 187.344 44.6536 187.409 45.3307 187.539 46.0078C 187.695 46.6589 187.773 47.3229 187.773 48C 187.773 48.2344 187.76 48.4818 187.734 48.7422C 187.708 48.9766 187.656 49.2109 187.578 49.4453C 187.708 49.7578 187.773 50.0964 187.773 50.4609C 187.799 50.8255 187.812 51.1901 187.812 51.5547C 187.812 51.9193 187.826 52.2839 187.852 52.6484C 187.878 52.987 187.969 53.3125 188.125 53.625C 188.047 54.0156 187.995 54.4062 187.969 54.7969C 187.943 55.1875 187.93 55.5781 187.93 55.9688C 187.93 56.8802 187.969 57.7786 188.047 58.6641C 188.151 59.5495 188.203 60.4479 188.203 61.3594C 188.203 61.5938 188.19 61.8411 188.164 62.1016C 188.164 62.362 188.151 62.6224 188.125 62.8828C 188.073 63.2214 187.982 63.5469 187.852 63.8594C 187.721 64.1719 187.656 64.5104 187.656 64.875C 187.656 65.1094 187.669 65.3568 187.695 65.6172C 187.721 65.8516 187.734 66.099 187.734 66.3594C 187.734 66.4635 187.721 66.5677 187.695 66.6719C 187.695 66.75 187.695 66.8411 187.695 66.9453C 187.565 67.8568 187.461 68.7812 187.383 69.7188C 187.305 70.6562 187.266 71.5807 187.266 72.4922C 187.266 73.3516 187.292 74.2109 187.344 75.0703C 187.396 75.9036 187.474 76.75 187.578 77.6094C 187.474 77.7917 187.422 78 187.422 78.2344C 187.422 78.599 187.513 78.9635 187.695 79.3281C 187.878 79.7188 188.151 79.9792 188.516 80.1094C 189.349 79.7969 190.117 79.3802 190.82 78.8594C 191.549 78.3646 192.279 77.8568 193.008 77.3359C 193.19 77.2057 193.464 77.0365 193.828 76.8281C 194.193 76.5938 194.44 76.4245 194.57 76.3203C 194.701 76.2161 194.805 76.112 194.883 76.0078C 194.987 75.8776 195.104 75.7474 195.234 75.6172L 196.953 73.7812C 197.943 72.7656 198.919 71.737 199.883 70.6953C 200.872 69.6536 201.784 68.5469 202.617 67.375C 202.852 67.0104 203.086 66.6589 203.32 66.3203C 203.555 65.9557 203.776 65.5781 203.984 65.1875C 204.089 65.0573 204.167 64.9141 204.219 64.7578C 204.271 64.5755 204.362 64.4193 204.492 64.2891C 204.57 64.1849 204.661 64.0807 204.766 63.9766C 204.896 63.8724 205 63.7682 205.078 63.6641C 205.286 63.4297 205.482 63.1953 205.664 62.9609C 205.872 62.7005 206.081 62.4271 206.289 62.1406C 206.862 61.3073 207.396 60.474 207.891 59.6406C 208.385 58.7812 208.932 57.9349 209.531 57.1016C 209.583 56.5807 209.688 56.099 209.844 55.6562C 210 55.1875 210.156 54.7448 210.312 54.3281C 210.469 53.8854 210.599 53.4297 210.703 52.9609C 210.807 52.4922 210.833 51.9714 210.781 51.3984C 210.911 51.2161 211.016 51.0859 211.094 51.0078C 211.198 50.9297 211.25 50.7734 211.25 50.5391L 211.25 49.875ZM 269.219 40.7734C 269.01 40.9036 268.789 40.9818 268.555 41.0078C 268.32 41.0339 268.073 41.0729 267.812 41.125C 267.578 41.151 267.357 41.2031 267.148 41.2812C 266.94 41.3594 266.784 41.5026 266.68 41.7109C 266.419 41.4505 266.133 41.2292 265.82 41.0469C 265.508 40.8646 265.195 40.6693 264.883 40.4609C 264.622 40.5391 264.362 40.6432 264.102 40.7734C 263.841 40.9036 263.581 40.9688 263.32 40.9688C 263.138 40.9688 262.956 40.9036 262.773 40.7734C 262.565 40.9297 262.318 41.0599 262.031 41.1641C 261.771 41.2422 261.484 41.3203 261.172 41.3984C 260.885 41.4766 260.612 41.5807 260.352 41.7109C 260.117 41.8411 259.948 42.0365 259.844 42.2969C 259.792 42.1667 259.661 42.1276 259.453 42.1797C 259.271 42.2318 259.167 42.1667 259.141 41.9844C 258.307 42.2708 257.461 42.5182 256.602 42.7266C 255.742 42.9349 254.883 43.1562 254.023 43.3906C 253.164 43.625 252.318 43.8854 251.484 44.1719C 250.651 44.4583 249.844 44.8099 249.062 45.2266C 249.036 45.2526 249.023 45.2917 249.023 45.3438C 249.023 45.6042 249.062 45.8516 249.141 46.0859C 249.219 46.3203 249.284 46.5417 249.336 46.75C 248.867 48.3385 248.555 49.9531 248.398 51.5938C 248.242 53.2344 248.034 54.849 247.773 56.4375L 247.773 56.5938C 247.773 56.724 247.826 56.8281 247.93 56.9062C 248.034 56.9583 248.086 57.0625 248.086 57.2188L 248.047 57.2969C 247.917 57.375 247.826 57.4922 247.773 57.6484C 247.721 57.7786 247.695 57.9219 247.695 58.0781C 247.695 58.1823 247.721 58.3385 247.773 58.5469C 247.331 60.0312 247.031 61.5417 246.875 63.0781C 246.745 64.6146 246.576 66.151 246.367 67.6875L 246.016 70.2656C 245.964 70.4219 245.911 70.5781 245.859 70.7344C 245.833 70.8646 245.82 71.0078 245.82 71.1641C 245.82 71.9974 245.872 72.8177 245.977 73.625C 246.107 74.4062 246.146 75.2135 246.094 76.0469C 246.328 76.4115 246.445 76.763 246.445 77.1016C 246.445 77.2318 246.432 77.362 246.406 77.4922C 246.406 77.6224 246.393 77.7526 246.367 77.8828C 246.706 78.2214 247.096 78.4557 247.539 78.5859C 248.008 78.7422 248.424 78.9766 248.789 79.2891L 248.789 79.4453C 248.789 79.7057 248.75 79.9531 248.672 80.1875C 248.594 80.4479 248.529 80.7083 248.477 80.9688C 248.424 81.1771 248.359 81.4766 248.281 81.8672C 248.229 82.2578 248.151 82.5182 248.047 82.6484C 247.917 82.8307 247.721 82.987 247.461 83.1172C 247.227 83.2734 246.992 83.3516 246.758 83.3516C 246.68 83.3516 246.562 83.3125 246.406 83.2344C 246.276 83.1562 246.172 83.0911 246.094 83.0391C 245.964 83.0391 245.794 83.1042 245.586 83.2344C 245.378 83.3646 245.169 83.4297 244.961 83.4297C 244.857 83.4297 244.766 83.4167 244.688 83.3906C 244.609 83.3906 244.518 83.3646 244.414 83.3125C 244.31 83.0521 244.154 82.8177 243.945 82.6094C 243.763 82.4271 243.542 82.2448 243.281 82.0625C 243.307 81.6979 243.242 81.4245 243.086 81.2422C 242.93 81.0599 242.773 80.8255 242.617 80.5391C 242.565 80.1745 242.513 79.7578 242.461 79.2891C 242.435 78.8203 242.24 78.4818 241.875 78.2734C 242.005 78.0911 242.07 77.8438 242.07 77.5312C 242.07 77.401 242.044 77.2578 241.992 77.1016C 241.966 76.9453 241.888 76.8281 241.758 76.75L 241.758 76.6719C 241.732 76.5417 241.771 76.4505 241.875 76.3984C 242.005 76.3203 242.07 76.2161 242.07 76.0859L 242.07 75.9297C 241.888 75.0964 241.797 74.224 241.797 73.3125C 241.797 72.4531 241.823 71.6068 241.875 70.7734C 241.927 69.9141 241.927 69.0547 241.875 68.1953C 242.031 68.0651 242.148 67.8568 242.227 67.5703C 242.331 67.2839 242.409 66.9714 242.461 66.6328C 242.513 66.2943 242.539 65.9688 242.539 65.6562C 242.565 65.3177 242.591 65.0443 242.617 64.8359C 242.747 63.3516 242.956 61.8932 243.242 60.4609C 243.529 59.0026 243.698 57.5182 243.75 56.0078C 243.88 55.7995 243.958 55.526 243.984 55.1875C 244.01 54.849 244.023 54.4974 244.023 54.1328C 244.023 53.7422 244.049 53.3646 244.102 53C 244.154 52.6354 244.258 52.3229 244.414 52.0625C 244.414 51.3333 244.479 50.6042 244.609 49.875C 244.74 49.1198 244.805 48.3646 244.805 47.6094C 244.805 47.2448 244.766 46.8672 244.688 46.4766C 244.427 46.3724 244.193 46.3203 243.984 46.3203C 243.698 46.3203 243.398 46.3854 243.086 46.5156C 242.799 46.6198 242.591 46.7891 242.461 47.0234C 241.888 47.0495 241.328 47.1406 240.781 47.2969C 240.234 47.4531 239.688 47.5312 239.141 47.5312L 238.75 47.5312C 238.646 47.5312 238.529 47.5182 238.398 47.4922C 238.216 47.5703 238.021 47.6354 237.812 47.6875C 237.63 47.7396 237.552 47.8958 237.578 48.1562C 236.771 48.2344 235.977 48.4036 235.195 48.6641C 234.44 48.9245 233.685 49.2109 232.93 49.5234C 232.174 49.8099 231.419 50.0833 230.664 50.3438C 229.883 50.6042 229.089 50.7734 228.281 50.8516C 227.995 50.9818 227.812 51.2552 227.734 51.6719C 227.161 51.6198 226.68 51.4766 226.289 51.2422C 225.898 51.0078 225.443 50.7865 224.922 50.5781C 224.766 50.0312 224.688 49.5104 224.688 49.0156C 224.688 48.3646 224.818 47.7396 225.078 47.1406C 225.339 46.5417 225.755 46.099 226.328 45.8125C 226.458 45.8385 226.576 45.8646 226.68 45.8906C 226.784 45.8906 226.901 45.8906 227.031 45.8906C 227.448 45.8906 227.865 45.8125 228.281 45.6562C 228.698 45.5 229.128 45.4219 229.57 45.4219C 229.701 45.4219 229.844 45.4609 230 45.5391C 230.182 45.4349 230.417 45.3568 230.703 45.3047C 230.964 45.2266 231.211 45.1615 231.445 45.1094C 231.706 45.0312 231.94 44.9271 232.148 44.7969C 232.357 44.6667 232.487 44.4844 232.539 44.25C 232.669 44.3542 232.812 44.4193 232.969 44.4453C 233.125 44.4714 233.281 44.4844 233.438 44.4844C 233.776 44.4844 234.128 44.4193 234.492 44.2891C 234.857 44.1589 235.143 43.9505 235.352 43.6641C 235.534 43.8724 235.794 43.9766 236.133 43.9766C 236.497 43.9766 236.849 43.8854 237.188 43.7031C 237.552 43.4948 237.904 43.3906 238.242 43.3906C 238.503 43.3906 238.698 43.4818 238.828 43.6641C 239.115 43.4297 239.453 43.2474 239.844 43.1172C 240.234 42.987 240.625 42.8698 241.016 42.7656C 241.432 42.6615 241.81 42.5443 242.148 42.4141C 242.513 42.2839 242.799 42.1016 243.008 41.8672C 243.138 41.8932 243.346 41.9062 243.633 41.9062C 244.076 41.9062 244.492 41.8542 244.883 41.75C 245.299 41.6198 245.716 41.5026 246.133 41.3984L 246.953 41.3203C 247.161 41.2943 247.344 41.2292 247.5 41.125C 247.682 41.0208 247.865 40.9297 248.047 40.8516C 248.229 40.7734 248.411 40.7083 248.594 40.6562C 248.802 40.6042 249.049 40.5911 249.336 40.6172C 249.961 40.2786 250.625 40.0182 251.328 39.8359C 252.031 39.6536 252.747 39.4974 253.477 39.3672C 254.206 39.2109 254.922 39.0417 255.625 38.8594C 256.328 38.651 256.992 38.3516 257.617 37.9609L 257.734 37.9609C 258.255 37.9609 258.763 37.8698 259.258 37.6875C 259.779 37.5052 260.26 37.2578 260.703 36.9453C 260.781 36.9714 260.859 36.9844 260.938 36.9844L 261.211 36.9844C 261.94 36.9844 262.643 36.8802 263.32 36.6719C 264.023 36.4635 264.753 36.3594 265.508 36.3594C 265.951 36.3594 266.302 36.4245 266.562 36.5547C 266.823 36.6589 267.057 36.8021 267.266 36.9844C 267.474 37.1406 267.695 37.2969 267.93 37.4531C 268.164 37.6094 268.464 37.7266 268.828 37.8047C 269.062 38.2474 269.18 38.7292 269.18 39.25C 269.18 39.7448 269.193 40.2526 269.219 40.7734ZM 297.656 56.1641C 297.656 57.6484 297.552 59.0938 297.344 60.5C 297.161 61.8802 296.888 63.2865 296.523 64.7188C 296.185 64.9792 295.977 65.3047 295.898 65.6953C 295.82 66.0859 295.69 66.4505 295.508 66.7891C 295.352 67.0755 295.143 67.388 294.883 67.7266C 294.622 68.0391 294.336 68.3776 294.023 68.7422C 293.711 69.0807 293.398 69.4323 293.086 69.7969C 292.773 70.1615 292.513 70.526 292.305 70.8906C 291.523 71.151 290.964 71.7109 290.625 72.5703C 290.208 72.7266 289.779 72.9089 289.336 73.1172C 288.893 73.2995 288.581 73.625 288.398 74.0938C 287.435 74.5885 286.523 75.1615 285.664 75.8125C 284.831 76.4375 283.919 76.9844 282.93 77.4531C 282.799 77.5833 282.643 77.6875 282.461 77.7656C 282.305 77.8177 282.135 77.8828 281.953 77.9609C 281.797 78.0391 281.641 78.1302 281.484 78.2344C 281.354 78.3646 281.276 78.5208 281.25 78.7031C 281.146 78.7031 281.068 78.6771 281.016 78.625C 280.99 78.599 280.911 78.5729 280.781 78.5469C 280.495 78.7031 280.365 78.9505 280.391 79.2891C 280.286 79.237 280.143 79.2109 279.961 79.2109C 279.648 79.2109 279.336 79.3021 279.023 79.4844C 278.737 79.6927 278.49 79.901 278.281 80.1094C 277.969 80.2656 277.604 80.4219 277.188 80.5781C 276.797 80.7344 276.51 80.9948 276.328 81.3594C 276.224 81.2552 276.068 81.2031 275.859 81.2031C 275.625 81.2031 275.378 81.2682 275.117 81.3984C 274.857 81.5547 274.661 81.724 274.531 81.9062C 274.167 81.9062 273.815 81.9583 273.477 82.0625C 273.164 82.1927 272.839 82.3099 272.5 82.4141C 272.161 82.5443 271.823 82.6615 271.484 82.7656C 271.172 82.8698 270.833 82.9219 270.469 82.9219C 270.26 82.9219 270.104 82.8698 270 82.7656C 269.896 82.6615 269.766 82.5703 269.609 82.4922C 269.479 82.5964 269.245 82.7135 268.906 82.8438C 268.594 82.974 268.359 83.0391 268.203 83.0391C 267.917 83.0391 267.63 83 267.344 82.9219C 267.083 82.8438 266.81 82.7526 266.523 82.6484L 265.703 82.375C 265.443 82.2969 265.156 82.2448 264.844 82.2188C 264.609 82.0104 264.323 81.7891 263.984 81.5547C 263.672 81.3464 263.359 81.2812 263.047 81.3594C 262.917 80.9688 262.721 80.6302 262.461 80.3438C 262.201 80.0573 261.901 79.7969 261.562 79.5625C 261.484 79.5104 261.393 79.4583 261.289 79.4062C 261.211 79.3802 261.146 79.3411 261.094 79.2891C 260.964 79.2109 260.846 79.0547 260.742 78.8203C 260.638 78.5859 260.521 78.4688 260.391 78.4688C 260.365 78.4688 260.326 78.4818 260.273 78.5078C 260.247 78.5339 260.221 78.5469 260.195 78.5469C 260.143 78.3125 260.065 78.0911 259.961 77.8828C 259.857 77.6484 259.674 77.5052 259.414 77.4531C 259.206 76.776 259.062 76.099 258.984 75.4219C 258.906 74.7448 258.802 74.0677 258.672 73.3906C 258.62 73.1823 258.555 72.9349 258.477 72.6484C 258.424 72.3359 258.398 72.0625 258.398 71.8281C 258.398 71.4375 258.451 70.9688 258.555 70.4219C 258.685 69.875 258.789 69.3932 258.867 68.9766C 259.18 67.4661 259.596 66.0078 260.117 64.6016C 260.638 63.1693 261.198 61.75 261.797 60.3438C 262.422 58.9375 263.06 57.5443 263.711 56.1641C 264.362 54.7839 264.974 53.3776 265.547 51.9453C 265.651 51.9453 265.716 51.9193 265.742 51.8672L 265.859 51.6719C 265.911 51.5938 265.951 51.5286 265.977 51.4766C 266.029 51.4245 266.12 51.3984 266.25 51.3984L 266.25 51.2812C 266.224 51.125 266.25 50.9948 266.328 50.8906C 266.432 50.7865 266.458 50.6172 266.406 50.3828C 266.823 49.9141 267.174 49.3932 267.461 48.8203C 267.747 48.2214 268.034 47.6354 268.32 47.0625C 268.633 46.4896 268.958 45.9297 269.297 45.3828C 269.635 44.8359 270.065 44.3672 270.586 43.9766L 270.586 43.7031C 270.56 43.5729 270.56 43.4427 270.586 43.3125C 270.638 43.1562 270.729 43.0521 270.859 43C 271.328 42.5312 271.719 42.0625 272.031 41.5938C 272.344 41.125 272.656 40.6693 272.969 40.2266C 273.307 39.7578 273.672 39.3281 274.062 38.9375C 274.479 38.5208 275 38.1432 275.625 37.8047C 275.911 37.6745 276.12 37.4792 276.25 37.2188C 276.38 36.9583 276.549 36.776 276.758 36.6719C 276.862 36.6198 276.966 36.5938 277.07 36.5938C 277.201 36.5677 277.318 36.5286 277.422 36.4766C 277.865 36.3464 278.307 36.1901 278.75 36.0078C 279.193 35.7995 279.661 35.6953 280.156 35.6953C 280.781 35.6953 281.25 35.8776 281.562 36.2422C 281.901 36.5807 282.161 36.9974 282.344 37.4922C 282.552 37.987 282.721 38.5078 282.852 39.0547C 282.982 39.6016 283.19 40.0703 283.477 40.4609C 284.258 40.513 285.052 40.6042 285.859 40.7344C 286.667 40.8385 287.37 41.1641 287.969 41.7109C 288.021 41.737 288.086 41.75 288.164 41.75C 288.294 41.75 288.359 41.6979 288.359 41.5938C 288.359 41.4896 288.424 41.4375 288.555 41.4375L 288.672 41.4375C 289.453 41.9062 290.195 42.4271 290.898 43C 291.628 43.5469 292.344 44.1198 293.047 44.7188C 293.177 44.8229 293.307 44.9271 293.438 45.0312C 293.594 45.1094 293.724 45.2135 293.828 45.3438C 293.958 45.5 294.076 45.6823 294.18 45.8906C 294.31 46.099 294.427 46.2812 294.531 46.4375C 295.833 48.7031 296.706 51.138 297.148 53.7422C 297.201 54.0286 297.24 54.3021 297.266 54.5625C 297.318 54.8229 297.344 55.0703 297.344 55.3047C 297.344 55.5391 297.396 55.6953 297.5 55.7734C 297.604 55.8255 297.656 55.9557 297.656 56.1641ZM 294.648 58.1562C 294.648 57.1146 294.518 56.112 294.258 55.1484C 294.388 55.0964 294.466 55.0182 294.492 54.9141C 294.544 54.7839 294.57 54.6536 294.57 54.5234L 294.57 54.3281L 294.102 53.4688C 294.076 53.1042 293.997 52.7656 293.867 52.4531C 293.763 52.1406 293.633 51.8281 293.477 51.5156C 293.32 51.2031 293.164 50.8906 293.008 50.5781C 292.878 50.2656 292.786 49.9271 292.734 49.5625C 292.318 49.25 291.94 48.8984 291.602 48.5078C 291.289 48.0911 291.003 47.6615 290.742 47.2188C 290.56 47.1406 290.391 47.0885 290.234 47.0625C 290.078 47.0365 290.026 46.8932 290.078 46.6328C 289.609 46.5026 289.18 46.3203 288.789 46.0859C 288.424 45.8255 288.06 45.5391 287.695 45.2266C 287.096 45.0964 286.497 44.9401 285.898 44.7578C 285.326 44.5495 284.74 44.4453 284.141 44.4453C 283.724 44.4453 283.32 44.5234 282.93 44.6797C 283.06 44.888 283.125 45.1224 283.125 45.3828C 283.125 45.6172 283.151 45.8516 283.203 46.0859C 284.036 46.2943 284.544 46.8021 284.727 47.6094C 284.596 47.6875 284.479 47.7917 284.375 47.9219C 284.271 48.026 284.167 48.1302 284.062 48.2344C 283.984 48.3125 283.88 48.3906 283.75 48.4688C 283.62 48.5469 283.464 48.5859 283.281 48.5859C 282.917 48.5859 282.63 48.5208 282.422 48.3906C 282.24 48.2604 281.94 48.2344 281.523 48.3125C 281.081 47.9219 280.651 47.5182 280.234 47.1016C 279.818 46.6589 279.349 46.2682 278.828 45.9297C 278.75 45.6693 278.62 45.4349 278.438 45.2266C 278.281 45.0182 278.112 44.8229 277.93 44.6406C 277.773 44.4323 277.617 44.224 277.461 44.0156C 277.331 43.7812 277.266 43.5208 277.266 43.2344C 277.266 43.0521 277.279 42.9219 277.305 42.8438C 277.148 42.7917 277.031 42.7656 276.953 42.7656C 276.745 42.7656 276.549 42.8438 276.367 43C 276.185 43.1302 275.977 43.2214 275.742 43.2734C 275.534 43.8984 275.234 44.4453 274.844 44.9141C 274.453 45.3828 274.049 45.8385 273.633 46.2812C 273.216 46.724 272.826 47.1927 272.461 47.6875C 272.122 48.1562 271.875 48.7422 271.719 49.4453C 270.885 50.487 270.117 51.6719 269.414 53C 268.711 54.3021 268.177 55.5781 267.812 56.8281C 267.214 57.5052 266.745 58.2214 266.406 58.9766C 266.068 59.7318 265.872 60.5651 265.82 61.4766C 265.69 61.5547 265.586 61.6589 265.508 61.7891L 265.117 62.5703C 265.065 62.7005 264.974 62.8047 264.844 62.8828L 264.844 63.0781C 264.844 63.2865 264.805 63.4818 264.727 63.6641C 264.648 63.8203 264.557 63.9766 264.453 64.1328C 264.375 64.2891 264.297 64.4453 264.219 64.6016C 264.141 64.7318 264.102 64.888 264.102 65.0703C 264.102 65.2786 264.154 65.487 264.258 65.6953C 263.971 65.7474 263.776 65.9036 263.672 66.1641C 263.594 66.3984 263.477 66.6068 263.32 66.7891C 263.216 67.6224 263.112 68.4688 263.008 69.3281C 262.904 70.1875 262.852 71.0339 262.852 71.8672C 262.852 72.8307 262.956 73.8073 263.164 74.7969C 263.398 75.0312 263.607 75.2917 263.789 75.5781C 263.971 75.8646 264.154 76.138 264.336 76.3984C 264.544 76.6589 264.766 76.8932 265 77.1016C 265.234 77.2839 265.547 77.401 265.938 77.4531C 265.938 77.6354 265.977 77.7656 266.055 77.8438C 266.133 77.9219 266.198 78.026 266.25 78.1562C 266.797 78.3385 267.37 78.4818 267.969 78.5859C 268.568 78.7161 269.167 78.7812 269.766 78.7812C 270.182 78.7812 270.599 78.7292 271.016 78.625C 271.458 78.5208 271.823 78.3125 272.109 78C 273.438 77.9479 274.753 77.6354 276.055 77.0625C 277.383 76.4896 278.594 75.8646 279.688 75.1875L 280.508 75.1875C 280.794 74.7969 281.146 74.4844 281.562 74.25C 281.979 73.9896 282.409 73.7552 282.852 73.5469C 282.93 73.4948 283.034 73.4427 283.164 73.3906C 283.294 73.3385 283.398 73.2865 283.477 73.2344C 283.763 73.026 284.049 72.7917 284.336 72.5312C 284.648 72.2708 284.961 72.0234 285.273 71.7891C 285.794 71.3984 286.328 71.0208 286.875 70.6562C 287.422 70.2917 287.943 69.901 288.438 69.4844C 288.958 69.0677 289.44 68.625 289.883 68.1562C 290.352 67.6615 290.742 67.1146 291.055 66.5156C 291.211 66.5156 291.328 66.4766 291.406 66.3984C 291.51 66.2943 291.589 66.1901 291.641 66.0859C 291.719 65.9818 291.797 65.8906 291.875 65.8125C 291.979 65.7344 292.122 65.6953 292.305 65.6953C 292.305 65.4609 292.344 65.2656 292.422 65.1094C 292.526 64.9271 292.63 64.7708 292.734 64.6406C 292.865 64.4844 292.982 64.3411 293.086 64.2109C 293.216 64.0807 293.333 63.9115 293.438 63.7031L 293.438 62.6094C 293.854 61.9323 294.154 61.2161 294.336 60.4609C 294.544 59.7057 294.648 58.9375 294.648 58.1562ZM 344.023 43.9766C 343.971 44.1068 343.867 44.3411 343.711 44.6797C 343.555 45.0182 343.477 45.2396 343.477 45.3438C 343.477 45.5521 343.464 45.8255 343.438 46.1641C 343.438 46.4766 343.542 46.6719 343.75 46.75C 343.464 47.349 343.281 47.9609 343.203 48.5859C 343.151 49.1849 343.125 49.8099 343.125 50.4609C 343.125 51.0859 343.112 51.724 343.086 52.375C 343.06 53 342.956 53.612 342.773 54.2109C 342.878 54.3672 342.904 54.5625 342.852 54.7969C 342.826 55.0052 342.891 55.1745 343.047 55.3047C 342.917 55.513 342.839 55.7214 342.812 55.9297C 342.786 56.112 342.773 56.3073 342.773 56.5156C 342.773 56.9323 342.812 57.3359 342.891 57.7266C 342.604 58.1432 342.461 58.612 342.461 59.1328C 342.487 59.6276 342.5 60.1354 342.5 60.6562C 342.5 61.099 342.435 61.5286 342.305 61.9453C 342.201 62.362 342.148 62.7917 342.148 63.2344C 342.148 63.3646 342.161 63.4818 342.188 63.5859C 342.214 63.6901 342.227 63.8073 342.227 63.9375C 342.227 64.0677 342.174 64.1589 342.07 64.2109C 341.992 64.237 341.953 64.3542 341.953 64.5625C 341.953 65.526 341.888 66.4635 341.758 67.375C 341.628 68.2604 341.458 69.1458 341.25 70.0312C 341.068 70.8906 340.859 71.763 340.625 72.6484C 340.391 73.5339 340.182 74.4323 340 75.3438C 339.714 75.6562 339.492 76.0078 339.336 76.3984C 339.206 76.7891 338.958 77.1016 338.594 77.3359C 338.255 78.1953 337.826 78.9766 337.305 79.6797C 336.81 80.3828 336.25 81.0469 335.625 81.6719C 335.026 82.2969 334.401 82.8958 333.75 83.4688C 333.099 84.0677 332.461 84.6797 331.836 85.3047C 331.576 85.3047 331.315 85.3047 331.055 85.3047C 330.82 85.3307 330.573 85.3438 330.312 85.3438C 329.74 85.3438 329.167 85.3177 328.594 85.2656C 328.021 85.2135 327.474 85.1224 326.953 84.9922C 326.849 84.6276 326.641 84.3802 326.328 84.25C 326.042 84.1458 325.781 83.9766 325.547 83.7422C 325.286 83.5078 325.091 83.2474 324.961 82.9609C 324.831 82.6745 324.557 82.4792 324.141 82.375C 324.01 81.9844 323.802 81.5286 323.516 81.0078C 323.255 80.487 322.995 79.9531 322.734 79.4062C 322.474 78.8594 322.24 78.3385 322.031 77.8438C 321.849 77.3229 321.758 76.8802 321.758 76.5156C 321.758 76.3854 321.771 76.2682 321.797 76.1641C 321.849 76.0339 321.888 75.9036 321.914 75.7734C 321.758 75.5911 321.654 75.3568 321.602 75.0703C 321.549 74.7839 321.51 74.4974 321.484 74.2109C 321.484 73.8984 321.458 73.612 321.406 73.3516C 321.354 73.0651 321.237 72.8438 321.055 72.6875C 320.742 72.8958 320.495 73.1562 320.312 73.4688C 320.13 73.7812 319.961 74.1198 319.805 74.4844C 319.674 74.849 319.544 75.2135 319.414 75.5781C 319.284 75.9427 319.128 76.2812 318.945 76.5938C 318.581 76.8802 318.255 77.2057 317.969 77.5703C 317.708 77.9349 317.435 78.2995 317.148 78.6641C 316.888 79.0547 316.602 79.4062 316.289 79.7188C 315.977 80.0573 315.612 80.3307 315.195 80.5391C 315.091 81.0078 314.896 81.3984 314.609 81.7109C 314.349 82.0495 314.062 82.349 313.75 82.6094C 313.438 82.8958 313.138 83.1823 312.852 83.4688C 312.565 83.7812 312.357 84.1589 312.227 84.6016C 311.784 84.8099 311.289 85.1094 310.742 85.5C 310.195 85.9167 309.635 86.3333 309.062 86.75C 308.516 87.1667 307.956 87.5182 307.383 87.8047C 306.836 88.1172 306.354 88.2734 305.938 88.2734C 305.599 88.2734 305.273 88.2344 304.961 88.1562C 304.674 88.1042 304.375 88.0391 304.062 87.9609C 303.75 87.8828 303.438 87.8047 303.125 87.7266C 302.812 87.6745 302.487 87.6615 302.148 87.6875C 301.654 87.1667 301.276 86.5677 301.016 85.8906C 300.755 85.2396 300.43 84.6276 300.039 84.0547C 299.909 83.2734 299.779 82.4792 299.648 81.6719C 299.518 80.8906 299.453 80.1094 299.453 79.3281C 299.453 78.8854 299.505 78.4688 299.609 78.0781C 299.714 77.7135 299.766 77.3359 299.766 76.9453C 299.766 76.8151 299.74 76.6979 299.688 76.5938C 299.661 76.4635 299.635 76.3333 299.609 76.2031C 299.792 75.8385 299.935 75.4609 300.039 75.0703C 300.143 74.6536 300.221 74.237 300.273 73.8203C 300.352 73.4036 300.43 73 300.508 72.6094C 300.586 72.1927 300.703 71.8021 300.859 71.4375C 300.911 71.125 300.82 70.8906 300.586 70.7344C 300.768 70.5521 300.885 70.3568 300.938 70.1484C 300.99 69.9401 301.016 69.7318 301.016 69.5234C 301.042 69.3151 301.055 69.0938 301.055 68.8594C 301.055 68.625 301.081 68.4036 301.133 68.1953C 301.159 68.0911 301.224 67.9349 301.328 67.7266L 301.68 67.0625C 301.81 66.8281 301.914 66.6198 301.992 66.4375C 302.096 66.2292 302.148 66.0729 302.148 65.9688C 302.148 65.7865 302.096 65.5911 301.992 65.3828C 302.096 64.862 302.266 64.3542 302.5 63.8594C 302.76 63.3646 302.956 62.8568 303.086 62.3359C 303.216 61.8151 303.294 61.3594 303.32 60.9688C 303.346 60.5521 303.464 60.0703 303.672 59.5234C 303.698 59.4714 303.711 59.4062 303.711 59.3281C 303.711 59.224 303.672 59.1589 303.594 59.1328C 303.516 59.1068 303.451 59.0547 303.398 58.9766C 303.711 58.3776 303.945 57.7396 304.102 57.0625C 304.284 56.3594 304.427 55.6432 304.531 54.9141C 304.661 54.1849 304.779 53.4688 304.883 52.7656C 304.987 52.0365 305.143 51.3464 305.352 50.6953C 305.273 50.1745 305.208 49.6406 305.156 49.0938C 305.104 48.5208 305.078 47.974 305.078 47.4531C 305.078 46.8542 305.13 46.2422 305.234 45.6172C 305.365 44.9922 305.638 44.4453 306.055 43.9766C 306.263 43.9766 306.484 43.9635 306.719 43.9375C 306.979 43.9115 307.214 43.8984 307.422 43.8984C 307.734 43.8984 308.073 43.9766 308.438 44.1328C 308.62 44.9661 308.854 45.7865 309.141 46.5938C 309.427 47.401 309.57 48.2604 309.57 49.1719C 309.57 49.6146 309.518 50.0573 309.414 50.5L 309.141 51.7891C 309.062 52.2057 308.997 52.6354 308.945 53.0781C 308.893 53.4948 308.906 53.9115 308.984 54.3281C 308.698 54.7188 308.529 55.1745 308.477 55.6953C 308.451 56.1901 308.438 56.6589 308.438 57.1016C 308.177 57.4661 307.982 57.8307 307.852 58.1953C 307.721 58.5599 307.617 58.9375 307.539 59.3281C 307.487 59.6927 307.435 60.0703 307.383 60.4609C 307.331 60.8516 307.266 61.2422 307.188 61.6328C 307.135 61.763 307.044 61.9193 306.914 62.1016C 306.81 62.2839 306.758 62.4141 306.758 62.4922C 306.758 62.6745 306.81 62.8568 306.914 63.0391C 306.862 63.1172 306.81 63.1823 306.758 63.2344C 306.706 63.2604 306.667 63.3255 306.641 63.4297C 306.562 63.7161 306.497 64.0286 306.445 64.3672C 306.419 64.6797 306.367 64.9792 306.289 65.2656C 306.159 65.9167 305.977 66.5547 305.742 67.1797C 305.534 67.8047 305.312 68.4297 305.078 69.0547C 305.078 69.5755 305.052 69.9922 305 70.3047C 304.974 70.6172 304.922 70.9036 304.844 71.1641C 304.792 71.3984 304.714 71.6589 304.609 71.9453C 304.531 72.2057 304.453 72.5443 304.375 72.9609C 304.297 73.3516 304.219 73.8333 304.141 74.4062C 304.089 74.9792 304.023 75.5781 303.945 76.2031C 303.893 76.8021 303.854 77.401 303.828 78C 303.802 78.5729 303.789 79.0677 303.789 79.4844C 303.789 80.2396 303.854 80.9688 303.984 81.6719C 304.141 82.401 304.401 83.0911 304.766 83.7422L 305.43 83.7422C 305.586 83.7422 305.755 83.7422 305.938 83.7422C 306.12 83.7682 306.289 83.8203 306.445 83.8984C 306.628 83.8464 306.719 83.7682 306.719 83.6641L 306.719 83.3516C 306.719 83.2734 306.784 83.1693 306.914 83.0391L 307.188 83.0781C 307.448 83.0781 307.682 83.0391 307.891 82.9609C 308.125 82.8828 308.359 82.7786 308.594 82.6484C 309.089 81.9714 309.661 81.3984 310.312 80.9297C 310.99 80.4609 311.589 79.9141 312.109 79.2891C 312.24 79.0807 312.279 78.8333 312.227 78.5469C 312.539 78.4948 312.773 78.3776 312.93 78.1953C 313.112 78.013 313.281 77.8177 313.438 77.6094C 313.594 77.401 313.75 77.2057 313.906 77.0234C 314.089 76.8151 314.323 76.6719 314.609 76.5938C 314.74 76.3594 314.857 76.112 314.961 75.8516C 315.065 75.5651 315.169 75.2917 315.273 75.0312C 315.404 74.7708 315.547 74.5365 315.703 74.3281C 315.885 74.0938 316.12 73.9115 316.406 73.7812C 316.849 72.7917 317.227 71.776 317.539 70.7344C 317.852 69.6667 318.32 68.6901 318.945 67.8047C 318.945 67.4661 318.958 67.1536 318.984 66.8672C 319.01 66.5807 318.997 66.2812 318.945 65.9688C 319.596 65.0833 320.013 64.1589 320.195 63.1953C 320.378 62.2318 320.469 61.2161 320.469 60.1484C 320.469 59.263 320.755 58.651 321.328 58.3125C 321.927 57.974 322.63 57.8047 323.438 57.8047L 323.828 57.8047C 323.984 57.8047 324.128 57.8177 324.258 57.8438C 324.31 58.026 324.401 58.1693 324.531 58.2734C 324.688 58.3516 324.844 58.4427 325 58.5469L 325 58.7812C 325 59.1458 324.948 59.4844 324.844 59.7969C 324.766 60.0833 324.727 60.3958 324.727 60.7344C 324.727 60.8906 324.753 61.099 324.805 61.3594C 325.065 62.1146 325.26 62.8047 325.391 63.4297C 325.547 64.0547 325.625 64.7839 325.625 65.6172C 325.625 66.3203 325.586 67.0365 325.508 67.7656C 325.456 68.4688 325.378 69.1719 325.273 69.875C 325.43 70.1615 325.508 70.4609 325.508 70.7734C 325.508 70.9818 325.482 71.2031 325.43 71.4375C 325.404 71.6458 325.391 71.8542 325.391 72.0625C 325.391 72.5052 325.456 72.9479 325.586 73.3906C 325.742 73.8073 325.898 74.224 326.055 74.6406C 326.237 75.0573 326.393 75.474 326.523 75.8906C 326.654 76.3073 326.706 76.724 326.68 77.1406C 327.122 77.6875 327.513 78.2474 327.852 78.8203C 328.216 79.4193 328.659 79.9401 329.18 80.3828C 329.388 80.4349 329.557 80.4609 329.688 80.4609C 329.844 80.4609 329.974 80.4349 330.078 80.3828C 330.182 80.3568 330.273 80.3177 330.352 80.2656C 330.456 80.2396 330.56 80.2135 330.664 80.1875C 330.768 80.1875 330.924 80.2005 331.133 80.2266C 331.602 79.888 332.031 79.4974 332.422 79.0547C 332.812 78.638 333.177 78.2083 333.516 77.7656C 333.88 77.3229 334.245 76.8672 334.609 76.3984C 334.974 75.9297 335.352 75.487 335.742 75.0703C 336.497 73.1953 337.109 71.3203 337.578 69.4453C 338.047 67.5703 338.333 65.6172 338.438 63.5859C 338.438 63.2995 338.503 63.1562 338.633 63.1562C 338.763 63.1562 338.88 63.0651 338.984 62.8828L 338.984 61.7891C 338.984 60.9557 339.023 60.1224 339.102 59.2891C 339.206 58.4557 339.401 57.6354 339.688 56.8281C 339.609 56.5156 339.57 56.2031 339.57 55.8906C 339.57 55.2135 339.622 54.5625 339.727 53.9375C 339.857 53.2865 339.922 52.6354 339.922 51.9844C 339.922 51.6458 339.883 51.3073 339.805 50.9688C 339.753 50.6042 339.622 50.2786 339.414 49.9922L 339.375 49.7578C 339.375 49.6016 339.427 49.4714 339.531 49.3672C 339.661 49.263 339.753 49.1458 339.805 49.0156C 339.674 48.6771 339.622 48.3255 339.648 47.9609C 339.701 47.5964 339.727 47.2318 339.727 46.8672C 339.727 46.6589 339.701 46.4375 339.648 46.2031C 339.596 45.9688 339.466 45.7865 339.258 45.6562C 339.492 45.3958 339.661 45.0573 339.766 44.6406C 339.87 44.224 339.935 43.7812 339.961 43.3125C 340.013 42.8438 340.039 42.388 340.039 41.9453C 340.039 41.4766 340.065 41.0859 340.117 40.7734C 340.352 40.513 340.612 40.2917 340.898 40.1094C 341.211 39.901 341.549 39.7969 341.914 39.7969C 342.383 39.7969 342.721 39.9661 342.93 40.3047C 343.138 40.6172 343.294 41.0078 343.398 41.4766C 343.503 41.9193 343.581 42.375 343.633 42.8438C 343.711 43.3125 343.841 43.6901 344.023 43.9766ZM 380.195 41.8672C 380.039 42.1276 379.922 42.401 379.844 42.6875C 379.792 42.974 379.753 43.2604 379.727 43.5469L 379.453 43.5469C 379.245 43.5469 379.062 43.5208 378.906 43.4688C 378.75 43.3906 378.568 43.3255 378.359 43.2734C 378.464 44.263 378.529 45.2656 378.555 46.2812C 378.581 47.2969 378.594 48.2995 378.594 49.2891C 378.594 50.5391 378.581 51.7891 378.555 53.0391C 378.529 54.263 378.516 55.5 378.516 56.75C 378.516 57.349 378.477 57.9479 378.398 58.5469C 378.346 59.1198 378.19 59.6797 377.93 60.2266C 377.982 60.6693 378.021 61.099 378.047 61.5156C 378.073 61.9062 378.086 62.3229 378.086 62.7656C 378.086 63.9896 378.008 65.2135 377.852 66.4375C 377.721 67.6354 377.552 68.8333 377.344 70.0312C 377.266 70.5 377.188 70.9818 377.109 71.4766C 377.057 71.9453 376.966 72.401 376.836 72.8438C 376.784 72.974 376.706 73.1042 376.602 73.2344C 376.523 73.3646 376.458 73.4948 376.406 73.625C 376.094 74.3021 375.742 74.9792 375.352 75.6562C 374.987 76.3073 374.544 76.9062 374.023 77.4531C 373.633 77.4792 373.255 77.5833 372.891 77.7656C 372.526 77.9479 372.188 78.0391 371.875 78.0391C 371.589 78.0391 371.354 77.8958 371.172 77.6094L 370.781 77.7656C 370.651 77.8177 370.508 77.8568 370.352 77.8828C 369.466 77.5182 368.62 77.0755 367.812 76.5547C 367.031 76.0339 366.38 75.3568 365.859 74.5234L 365.703 74.5234C 365.469 74.5234 365.299 74.4714 365.195 74.3672C 365.065 74.237 364.922 74.0807 364.766 73.8984C 364.635 73.6901 364.518 73.5078 364.414 73.3516C 364.102 72.8568 363.763 72.362 363.398 71.8672C 363.034 71.3724 362.604 70.9557 362.109 70.6172C 361.901 69.8359 361.589 69.1719 361.172 68.625C 360.755 68.0521 360.326 67.4401 359.883 66.7891C 359.544 65.487 358.919 64.276 358.008 63.1562C 358.138 63.026 358.203 62.9349 358.203 62.8828C 358.203 62.7526 358.151 62.6484 358.047 62.5703C 357.969 62.4661 357.93 62.362 357.93 62.2578C 357.93 62.1536 357.956 62.0755 358.008 62.0234C 357.669 61.6589 357.383 61.2552 357.148 60.8125C 356.94 60.3438 356.732 59.875 356.523 59.4062C 356.341 58.9375 356.133 58.4688 355.898 58C 355.69 57.5312 355.43 57.1016 355.117 56.7109C 354.831 56.8932 354.648 57.1146 354.57 57.375C 354.518 57.6354 354.492 57.9089 354.492 58.1953C 354.492 58.4036 354.492 58.612 354.492 58.8203C 354.518 59.0286 354.531 59.237 354.531 59.4453C 354.531 59.9661 354.466 60.474 354.336 60.9688C 354.232 61.4635 354.154 61.9714 354.102 62.4922C 354.076 62.8568 354.062 63.2604 354.062 63.7031C 354.089 64.1458 354.076 64.5885 354.023 65.0312C 353.997 65.474 353.932 65.9036 353.828 66.3203C 353.724 66.737 353.542 67.0885 353.281 67.375C 353.125 68.8594 352.93 70.3438 352.695 71.8281C 352.461 73.3125 352.24 74.7969 352.031 76.2812C 351.979 76.5417 351.927 76.8672 351.875 77.2578C 351.823 77.6484 351.758 78.0391 351.68 78.4297C 351.628 78.8464 351.576 79.237 351.523 79.6016C 351.497 79.9922 351.484 80.3047 351.484 80.5391C 351.484 80.7995 351.549 81.0469 351.68 81.2812C 351.81 81.5417 351.875 81.7891 351.875 82.0234C 351.875 82.2057 351.81 82.3099 351.68 82.3359C 351.576 82.388 351.51 82.4922 351.484 82.6484C 351.667 83.2214 351.758 83.8724 351.758 84.6016C 351.758 84.8099 351.745 85.0182 351.719 85.2266C 351.693 85.4609 351.654 85.6823 351.602 85.8906C 351.549 86.0208 351.458 86.138 351.328 86.2422C 351.198 86.3724 351.133 86.4896 351.133 86.5938C 351.133 86.6979 351.185 86.776 351.289 86.8281C 351.133 86.9844 350.938 87.0885 350.703 87.1406C 350.469 87.1927 350.299 87.3359 350.195 87.5703C 349.935 87.362 349.674 87.1667 349.414 86.9844C 349.154 86.8281 348.906 86.6458 348.672 86.4375L 348.555 86.3984C 348.372 86.3984 348.216 86.4505 348.086 86.5547C 347.982 86.6849 347.839 86.75 347.656 86.75C 347.604 86.75 347.552 86.737 347.5 86.7109C 347.474 86.7109 347.435 86.7109 347.383 86.7109L 347.148 85.6953C 347.07 85.3568 346.966 85.0443 346.836 84.7578C 347.044 84.2109 347.174 83.5859 347.227 82.8828C 347.305 82.2057 347.383 81.5156 347.461 80.8125C 347.539 80.1094 347.656 79.4323 347.812 78.7812C 347.969 78.1562 348.255 77.6094 348.672 77.1406C 348.672 76.9323 348.594 76.7891 348.438 76.7109C 348.307 76.6328 348.242 76.4635 348.242 76.2031C 348.242 76.151 348.255 76.0599 348.281 75.9297C 348.333 75.7995 348.372 75.6562 348.398 75.5C 348.451 75.3438 348.49 75.2005 348.516 75.0703C 348.568 74.9141 348.607 74.7969 348.633 74.7188C 348.841 73.7031 348.997 72.6615 349.102 71.5938C 349.232 70.526 349.557 69.5365 350.078 68.625C 350.052 68.5208 350.039 68.3646 350.039 68.1562C 350.039 67.7135 350.078 67.2839 350.156 66.8672C 350.26 66.4505 350.312 66.0208 350.312 65.5781C 350.312 65.2135 350.273 64.875 350.195 64.5625C 350.273 64.276 350.378 64.0026 350.508 63.7422C 350.664 63.4557 350.742 63.1693 350.742 62.8828C 350.742 62.6224 350.651 62.4401 350.469 62.3359C 350.599 62.2318 350.677 62.1146 350.703 61.9844C 350.755 61.8542 350.781 61.724 350.781 61.5938C 350.807 61.4635 350.833 61.3464 350.859 61.2422C 350.911 61.112 351.016 61.0078 351.172 60.9297C 351.146 60.6693 351.12 60.4219 351.094 60.1875C 351.094 59.9531 351.094 59.7057 351.094 59.4453C 351.094 58.4818 351.146 57.5312 351.25 56.5938C 351.354 55.6302 351.406 54.6536 351.406 53.6641C 351.406 52.7005 351.328 51.763 351.172 50.8516L 351.602 49.9922C 351.341 49.7839 351.172 49.4453 351.094 48.9766C 351.016 48.5078 350.964 48 350.938 47.4531C 350.911 46.9062 350.859 46.3724 350.781 45.8516C 350.729 45.3047 350.586 44.862 350.352 44.5234L 350.352 44.1719C 350.352 43.7552 350.326 43.3516 350.273 42.9609C 350.221 42.5703 350.195 42.1797 350.195 41.7891L 350.195 41.4375C 350.326 41.3854 350.417 41.2943 350.469 41.1641C 350.547 41.0339 350.599 40.9036 350.625 40.7734L 350.781 40.7734C 351.094 40.7734 351.406 40.7474 351.719 40.6953C 352.031 40.6432 352.344 40.6172 352.656 40.6172L 353.164 40.6172C 353.477 40.8516 353.75 41.125 353.984 41.4375C 354.219 41.75 354.505 42.0365 354.844 42.2969L 354.844 43C 355.078 43.3125 355.26 43.651 355.391 44.0156C 355.521 44.3802 355.651 44.7578 355.781 45.1484C 355.938 45.5391 356.094 45.9167 356.25 46.2812C 356.406 46.6458 356.628 46.9583 356.914 47.2188C 356.862 47.4792 356.836 47.6875 356.836 47.8438C 356.836 48.1823 356.862 48.5208 356.914 48.8594C 356.992 49.1979 357.044 49.5234 357.07 49.8359C 357.174 49.9661 357.266 50.1354 357.344 50.3438C 357.422 50.526 357.552 50.6432 357.734 50.6953C 357.865 51.7109 358.125 52.6745 358.516 53.5859C 358.932 54.4974 359.232 55.4479 359.414 56.4375C 359.622 56.6458 359.779 56.9062 359.883 57.2188C 359.987 57.5052 360.091 57.7917 360.195 58.0781C 360.326 58.3646 360.456 58.638 360.586 58.8984C 360.742 59.1328 360.964 59.3021 361.25 59.4062C 361.406 60.0312 361.602 60.6562 361.836 61.2812C 362.07 61.9062 362.435 62.4401 362.93 62.8828C 362.93 63.4036 363.008 63.8594 363.164 64.25C 363.346 64.6146 363.542 64.9661 363.75 65.3047C 363.984 65.6172 364.193 65.9297 364.375 66.2422C 364.557 66.5547 364.674 66.8932 364.727 67.2578C 365.091 67.8047 365.508 68.3125 365.977 68.7812C 366.471 69.25 366.966 69.7057 367.461 70.1484C 367.982 70.5651 368.49 70.9948 368.984 71.4375C 369.479 71.8802 369.935 72.349 370.352 72.8438C 370.638 72.8698 370.872 72.9349 371.055 73.0391C 371.263 73.1172 371.497 73.1823 371.758 73.2344C 371.94 73.1042 372.083 72.9479 372.188 72.7656C 372.318 72.5573 372.435 72.349 372.539 72.1406C 372.643 71.9323 372.747 71.737 372.852 71.5547C 372.982 71.3464 373.138 71.1641 373.32 71.0078C 373.32 70.9557 373.307 70.9167 373.281 70.8906C 373.281 70.8385 373.281 70.7865 373.281 70.7344C 373.281 70.4479 373.32 70.2266 373.398 70.0703C 373.503 69.888 373.62 69.6927 373.75 69.4844L 373.75 68.4688C 373.958 68.0781 374.102 67.6615 374.18 67.2188C 374.258 66.776 374.297 66.3333 374.297 65.8906C 374.297 65.526 374.284 65.1615 374.258 64.7969C 374.232 64.4062 374.219 64.0156 374.219 63.625C 374.219 63.3906 374.232 63.1562 374.258 62.9219C 374.284 62.6615 374.336 62.4271 374.414 62.2188C 374.466 62.1667 374.557 62.0885 374.688 61.9844C 374.818 61.8542 374.883 61.776 374.883 61.75C 374.883 61.6198 374.844 61.4896 374.766 61.3594C 374.688 61.2292 374.648 61.099 374.648 60.9688C 374.648 60.7865 374.727 60.6432 374.883 60.5391L 374.883 60.3047C 374.883 60.1745 374.857 60.0573 374.805 59.9531C 374.779 59.8229 374.701 59.7318 374.57 59.6797C 374.701 59.5234 374.792 59.3411 374.844 59.1328C 374.896 58.8984 374.922 58.6641 374.922 58.4297C 374.948 58.1693 374.948 57.9219 374.922 57.6875C 374.922 57.4531 374.922 57.2318 374.922 57.0234C 374.922 56.7891 374.935 56.5417 374.961 56.2812C 374.987 56.0208 375.091 55.7995 375.273 55.6172C 375.195 55.3047 375.143 55.0052 375.117 54.7188C 375.091 54.4062 375.078 54.0938 375.078 53.7812C 375.078 53.2344 375.104 52.6875 375.156 52.1406C 375.208 51.5938 375.234 51.0339 375.234 50.4609C 375.234 50.2526 375.221 50.0443 375.195 49.8359C 375.169 49.6016 375.156 49.3802 375.156 49.1719C 375.156 48.9635 375.195 48.8724 375.273 48.8984C 375.378 48.8984 375.43 48.8333 375.43 48.7031C 375.43 48.5208 375.404 48.3385 375.352 48.1562C 375.326 47.974 375.299 47.7917 375.273 47.6094C 375.221 47.1667 375.182 46.724 375.156 46.2812C 375.13 45.8125 375.117 45.3438 375.117 44.875C 375.117 44.5885 375.117 44.3021 375.117 44.0156C 375.143 43.7031 375.195 43.4036 375.273 43.1172C 375.117 42.8828 375.013 42.6615 374.961 42.4531C 374.935 42.2188 374.909 42.0104 374.883 41.8281L 374.805 41.2422C 374.779 41.0339 374.701 40.8255 374.57 40.6172C 374.544 40.5911 374.531 40.513 374.531 40.3828C 374.531 40.1745 374.583 40.0182 374.688 39.9141C 374.557 39.4714 374.375 39.0417 374.141 38.625C 373.932 38.2083 373.802 37.7526 373.75 37.2578C 373.464 37.1016 373.242 36.8542 373.086 36.5156C 372.956 36.151 372.891 35.8255 372.891 35.5391C 372.891 35.2005 372.982 34.875 373.164 34.5625C 373.346 34.224 373.633 34.0547 374.023 34.0547C 374.18 34.0547 374.323 34.1068 374.453 34.2109C 374.609 34.2891 374.753 34.3932 374.883 34.5234C 375.039 34.6276 375.182 34.7318 375.312 34.8359C 375.469 34.9141 375.625 34.9531 375.781 34.9531C 375.885 34.9531 376.042 34.9271 376.25 34.875C 376.536 35.2656 376.823 35.6302 377.109 35.9688C 377.422 36.2812 377.734 36.6068 378.047 36.9453C 378.047 37.388 378.125 37.7917 378.281 38.1562C 378.438 38.5208 378.607 38.8724 378.789 39.2109C 378.971 39.5234 379.128 39.8359 379.258 40.1484C 379.414 40.4609 379.479 40.7995 379.453 41.1641C 379.505 41.3464 379.609 41.4766 379.766 41.5547C 379.922 41.6328 380.065 41.737 380.195 41.8672Z"/>
<path id="path2_fill" d="M 0 0L 39 0C 47.8366 0 55 7.16344 55 16L 55 141L 0 141L 0 0Z"/>
<path id="path3_fill" d="M 0 0L 56 0C 60.4183 0 64 3.58172 64 8L 64 164L 0 164L 0 0Z"/>
<path id="path4_fill" d="M 0 16C 0 7.16344 7.16344 0 16 0L 53 0L 53 164L 0 164L 0 16Z"/>
<path id="path5_fill" d="M 0 16C 0 7.16344 7.16344 0 16 0L 114 0C 122.837 0 130 7.16344 130 16L 130 256L 72 256C 32.2355 256 0 223.764 0 184L 0 16Z"/>
<path id="path6_fill" d="M 0 0L 96 0C 104.837 0 112 7.16344 112 16L 112 240L 72 240C 32.2355 240 0 207.764 0 168L 0 0Z"/>
<path id="path7_fill" d="M 0 16C 0 7.16344 7.16344 0 16 0L 92 0C 100.837 0 108 7.16344 108 16L 108 152C 108 191.764 75.7645 224 36 224L 0 224L 0 16Z"/>
<path id="path8_fill" d="M 0 16C 0 7.16344 7.16344 0 16 0L 96 0L 96 128C 96 167.764 63.7645 200 24 200L 0 200L 0 16Z"/>
<path id="path9_fill" d="M 210.689 232L 62.2891 232L 62.2891 212L 127.089 146.4C 140.956 132.267 151.356 121.2 158.289 113.2C 165.222 104.933 170.422 96.9333 173.889 89.2C 177.356 81.4667 179.089 72.9333 179.089 63.6C 179.089 52.1333 175.622 42.6667 168.689 35.2C 162.022 27.7333 151.889 24 138.289 24C 124.422 24 113.489 27.8667 105.489 35.6C 97.7557 43.3333 93.8891 54.4 93.8891 68.8C 93.8891 75.4667 94.9557 83.7333 97.0891 93.6L 69.8891 93.6C 67.4891 85.0667 66.2891 76.6667 66.2891 68.4C 66.2891 48.4 73.0891 32.5333 86.6891 20.8C 100.556 8.79999 119.089 2.79999 142.289 2.79999C 162.822 2.79999 178.956 8.13332 190.689 18.8C 202.689 29.4667 208.689 43.3333 208.689 60.4C 208.689 71.3333 206.289 81.7333 201.489 91.6C 196.689 101.2 190.156 110.8 181.889 120.4C 173.622 129.733 161.356 142.533 145.089 158.8L 94.6891 209.6L 183.889 209.6L 183.889 166.8L 210.289 166.8L 210.689 232ZM 247.902 210.8L 281.502 210.8L 281.502 32.8L 247.502 38.4L 246.702 17.2L 310.302 6.79999L 310.302 210.8L 341.902 210.8L 341.902 232L 247.902 232L 247.902 210.8Z"/>
<path id="path10_stroke_2x" d="M 210.689 232L 210.689 236L 214.714 236L 214.689 231.975L 210.689 232ZM 62.2891 232L 58.2891 232L 58.2891 236L 62.2891 236L 62.2891 232ZM 62.2891 212L 59.4433 209.189L 58.2891 210.358L 58.2891 212L 62.2891 212ZM 127.089 146.4L 129.935 149.211L 129.944 149.201L 127.089 146.4ZM 158.289 113.2L 161.312 115.82L 161.333 115.795L 161.354 115.77L 158.289 113.2ZM 168.689 35.2L 165.705 37.8641L 165.731 37.8932L 165.758 37.9218L 168.689 35.2ZM 105.489 35.6L 102.709 32.7241L 102.685 32.7476L 102.661 32.7716L 105.489 35.6ZM 97.0891 93.6L 97.0891 97.6L 102.046 97.6L 100.999 92.7547L 97.0891 93.6ZM 69.8891 93.6L 66.0385 94.683L 66.8589 97.6L 69.8891 97.6L 69.8891 93.6ZM 86.6891 20.8L 89.302 23.8286L 89.3066 23.8247L 86.6891 20.8ZM 190.689 18.8L 187.998 21.7598L 188.015 21.7748L 188.032 21.7896L 190.689 18.8ZM 201.489 91.6L 205.067 93.3889L 205.076 93.3694L 205.086 93.3499L 201.489 91.6ZM 181.889 120.4L 184.883 123.052L 184.902 123.031L 184.92 123.01L 181.889 120.4ZM 145.089 158.8L 142.261 155.972L 142.255 155.977L 142.249 155.983L 145.089 158.8ZM 94.6891 209.6L 91.8495 206.783L 85.0859 213.6L 94.6891 213.6L 94.6891 209.6ZM 183.889 209.6L 183.889 213.6L 187.889 213.6L 187.889 209.6L 183.889 209.6ZM 183.889 166.8L 183.889 162.8L 179.889 162.8L 179.889 166.8L 183.889 166.8ZM 210.289 166.8L 214.289 166.775L 214.265 162.8L 210.289 162.8L 210.289 166.8ZM 210.689 228L 62.2891 228L 62.2891 236L 210.689 236L 210.689 228ZM 66.2891 232L 66.2891 212L 58.2891 212L 58.2891 232L 66.2891 232ZM 65.1348 214.811L 129.935 149.211L 124.243 143.589L 59.4433 209.189L 65.1348 214.811ZM 129.944 149.201C 143.828 135.05 154.297 123.914 161.312 115.82L 155.266 110.58C 148.415 118.486 138.083 129.483 124.234 143.599L 129.944 149.201ZM 161.354 115.77C 168.463 107.294 173.887 98.9837 177.539 90.8362L 170.239 87.5638C 166.958 94.883 161.982 102.573 155.224 110.63L 161.354 115.77ZM 177.539 90.8362C 181.259 82.5382 183.089 73.4397 183.089 63.6L 175.089 63.6C 175.089 72.4269 173.453 80.3952 170.239 87.5638L 177.539 90.8362ZM 183.089 63.6C 183.089 51.2603 179.328 40.7791 171.62 32.4782L 165.758 37.9218C 171.917 44.5543 175.089 53.0064 175.089 63.6L 183.089 63.6ZM 171.673 32.5359C 164.003 23.9457 152.601 20 138.289 20L 138.289 28C 151.177 28 160.042 31.521 165.705 37.8641L 171.673 32.5359ZM 138.289 20C 123.654 20 111.628 24.1023 102.709 32.7241L 108.269 38.476C 115.35 31.631 125.191 28 138.289 28L 138.289 20ZM 102.661 32.7716C 93.9622 41.4701 89.8891 53.6878 89.8891 68.8L 97.8891 68.8C 97.8891 55.1122 101.549 45.1966 108.317 38.4284L 102.661 32.7716ZM 89.8891 68.8C 89.8891 75.8561 91.0133 84.4272 93.1794 94.4453L 100.999 92.7547C 98.8981 83.0395 97.8891 75.0773 97.8891 68.8L 89.8891 68.8ZM 97.0891 89.6L 69.8891 89.6L 69.8891 97.6L 97.0891 97.6L 97.0891 89.6ZM 73.7397 92.517C 71.4317 84.3108 70.2891 76.2751 70.2891 68.4L 62.2891 68.4C 62.2891 77.0583 63.5465 85.8226 66.0385 94.683L 73.7397 92.517ZM 70.2891 68.4C 70.2891 49.4151 76.689 34.7105 89.302 23.8286L 84.0761 17.7714C 69.4892 30.3562 62.2891 47.3849 62.2891 68.4L 70.2891 68.4ZM 89.3066 23.8247C 102.27 12.6065 119.788 6.79999 142.289 6.79999L 142.289 -1.20001C 118.39 -1.20001 98.8417 4.99343 84.0716 17.7753L 89.3066 23.8247ZM 142.289 6.79999C 162.129 6.79999 177.198 11.941 187.998 21.7598L 193.38 15.8402C 180.714 4.32561 163.516 -1.20001 142.289 -1.20001L 142.289 6.79999ZM 188.032 21.7896C 199.119 31.6448 204.689 44.3945 204.689 60.4L 212.689 60.4C 212.689 42.2722 206.259 27.2885 193.347 15.8104L 188.032 21.7896ZM 204.689 60.4C 204.689 70.7248 202.428 80.5267 197.892 89.8501L 205.086 93.3499C 210.15 82.94 212.689 71.9419 212.689 60.4L 204.689 60.4ZM 197.911 89.8111C 193.283 99.0685 186.947 108.396 178.858 117.79L 184.92 123.01C 193.365 113.204 200.095 103.331 205.067 93.3889L 197.911 89.8111ZM 178.895 117.748C 170.709 126.99 158.509 139.723 142.261 155.972L 147.917 161.628C 164.202 145.344 176.536 132.476 184.883 123.052L 178.895 117.748ZM 142.249 155.983L 91.8495 206.783L 97.5286 212.417L 147.929 161.617L 142.249 155.983ZM 94.6891 213.6L 183.889 213.6L 183.889 205.6L 94.6891 205.6L 94.6891 213.6ZM 187.889 209.6L 187.889 166.8L 179.889 166.8L 179.889 209.6L 187.889 209.6ZM 183.889 170.8L 210.289 170.8L 210.289 162.8L 183.889 162.8L 183.889 170.8ZM 206.289 166.825L 206.689 232.025L 214.689 231.975L 214.289 166.775L 206.289 166.825ZM 247.902 210.8L 247.902 206.8L 243.902 206.8L 243.902 210.8L 247.902 210.8ZM 281.502 210.8L 281.502 214.8L 285.502 214.8L 285.502 210.8L 281.502 210.8ZM 281.502 32.8L 285.502 32.8L 285.502 28.0873L 280.851 28.8532L 281.502 32.8ZM 247.502 38.4L 243.504 38.5508L 243.675 43.0841L 248.152 42.3468L 247.502 38.4ZM 246.702 17.2L 246.056 13.2524L 242.571 13.8223L 242.704 17.3508L 246.702 17.2ZM 310.302 6.79999L 314.302 6.79999L 314.302 2.09278L 309.656 2.85242L 310.302 6.79999ZM 310.302 210.8L 306.302 210.8L 306.302 214.8L 310.302 214.8L 310.302 210.8ZM 341.902 210.8L 345.902 210.8L 345.902 206.8L 341.902 206.8L 341.902 210.8ZM 341.902 232L 341.902 236L 345.902 236L 345.902 232L 341.902 232ZM 247.902 232L 243.902 232L 243.902 236L 247.902 236L 247.902 232ZM 247.902 214.8L 281.502 214.8L 281.502 206.8L 247.902 206.8L 247.902 214.8ZM 285.502 210.8L 285.502 32.8L 277.502 32.8L 277.502 210.8L 285.502 210.8ZM 280.851 28.8532L 246.851 34.4532L 248.152 42.3468L 282.152 36.7468L 280.851 28.8532ZM 251.499 38.2492L 250.699 17.0492L 242.704 17.3508L 243.504 38.5508L 251.499 38.2492ZM 247.347 21.1476L 310.947 10.7476L 309.656 2.85242L 246.056 13.2524L 247.347 21.1476ZM 306.302 6.79999L 306.302 210.8L 314.302 210.8L 314.302 6.79999L 306.302 6.79999ZM 310.302 214.8L 341.902 214.8L 341.902 206.8L 310.302 206.8L 310.302 214.8ZM 337.902 210.8L 337.902 232L 345.902 232L 345.902 210.8L 337.902 210.8ZM 341.902 228L 247.902 228L 247.902 236L 341.902 236L 341.902 228ZM 251.902 232L 251.902 210.8L 243.902 210.8L 243.902 232L 251.902 232Z"/>
</defs>
</svg>
